<svg id="Layer_1" data-name="Layer 1" xmlns="http://www.w3.org/2000/svg" viewBox="0 0 657.5 478.02"><defs><style>.cls-1{fill:#ffeee6;}.cls-12,.cls-2{fill:#fff;}.cls-3{fill:#ff7a79;}.cls-4{fill:#523e3f;}.cls-5{fill:#afdcf2;}.cls-6{fill:#ffe4cf;}.cls-7{fill:#ffccae;}.cls-8{fill:#fcbe9f;}.cls-9{fill:#ff9797;}.cls-10{fill:#8f76c9;}.cls-11{fill:none;}.cls-12{stroke:#fff;stroke-miterlimit:10;strokeWidth:12px;}.cls-13{fill:#f8bc5a;}.cls-14,.cls-18{fill:#532124;}.cls-14{opacity:0.1;}.cls-14,.cls-20{isolation:isolate;}.cls-15{fill:#ff8b98;}.cls-16{fill:#b8d1cd;}.cls-17{fill:#ffe1c7;}.cls-19,.cls-20{fill:#fff5ed;}.cls-20{opacity:0.28;}</style></defs><path className="cls-1" d="M816.07,707.54c.08,3.19,2,6,4,8.45,2.43,2.82,5.51,5.45,9.21,5.83a10.76,10.76,0,0,0,7.13-2.05c8.06-5.67,6.83-18.5-1.62-23.27C827.79,692.53,815.85,699.29,816.07,707.54Z" transform="translate(-276.74 -273.01)"/><path className="cls-2" d="M893.23,479.58a29,29,0,0,0-15-9.36c-.55-10.25-5.37-19.44-13.14-24.91A30,30,0,0,0,847.74,440a34.41,34.41,0,0,0-17.25,4.67,48.49,48.49,0,0,0-6.49,4.5,27.59,27.59,0,0,0-13.13-3.37,24.76,24.76,0,0,0-2.58.13,28.6,28.6,0,0,0-19.78,11.4,197.65,197.65,0,0,0-23.9-22.78,89.5,89.5,0,0,0,5.23-26.2c0-.69.06-1.41.07-2.23v-.39c0-.55,0-1.09,0-1.63a42.54,42.54,0,0,0-3.92-18c-4.28-8.82-12.19-15.09-21.19-16.78a26.88,26.88,0,0,0-5-.46,29.81,29.81,0,0,0-12.55,2.86,32.44,32.44,0,0,0-23.69-10.86c-.76,0-1.53,0-2.33.1-12,1-22.56,9.46-27,21.59a47.62,47.62,0,0,0-2.11,7.59,29.06,29.06,0,0,0-7.2,2.5l-1.16-.15a21.48,21.48,0,0,0-2.61-3.89,17.1,17.1,0,0,0,1.41-3.11c1.86-5.54,1.17-13.6-6.34-19.6l-7.27-5.8-.24-9.09c-.31-11.52-9.09-17.74-17.19-17.74a18.11,18.11,0,0,0-14.07,6.94l-6,7.25-9.64.25c-9.63.25-15,6.27-16.91,11.81s-1.18,13.59,6.34,19.6l7.26,5.8.25,9.09c0,.08,0,.15,0,.23l-2.82-5.57c-3.35-6.6-9.4-10.54-16.18-10.54-8.23,0-15,5.59-17.21,14.24l-3,11.8-11.07,5.6a19.39,19.39,0,0,0-8.53,8c-.25-.37-.51-.73-.78-1.09-6.35-8.61-16.16-13.75-26.22-13.75a29.14,29.14,0,0,0-5.81.59c-9.26,1.93-17.32,8.44-21.91,17.63a31.59,31.59,0,0,0-4.73-.36,28,28,0,0,0-12.81,3c-8.14,4.14-14,12.38-15.62,22.07a42.66,42.66,0,0,0,1.31,18.37c.13.56.29,1.12.48,1.75,0,.08.11.35.13.43.2.63.41,1.28.64,1.91A90.65,90.65,0,0,0,471,497.23a27.44,27.44,0,0,0-8.63,4.81,24.39,24.39,0,0,0-2.66,2.52,24.69,24.69,0,0,0-6.59,18.73,25.32,25.32,0,0,0,.84,5,29.79,29.79,0,0,0-19.05,9.19c-6,6.55-8.72,15.88-7.41,25.4a28,28,0,0,0-11.65,11.63,29.3,29.3,0,0,0,.15,26.19,35.33,35.33,0,0,0,1.84,3.27,138.52,138.52,0,0,0-2.19,25.2c-.58.44-1.14.88-1.7,1.33-16.69,13.39-26.48,32.54-26.18,51.25a50.11,50.11,0,0,0,.53,6.58c.13.95.29,1.87.49,2.76a59.65,59.65,0,0,0,28.28,39.37,65.76,65.76,0,0,0,33.17,8.72,71.27,71.27,0,0,0,21.38-3.28,41.75,41.75,0,0,0,16-8.81,28.15,28.15,0,0,0,9.15-22.23h52.32l2.27.29,1.9-15.86-1.66,15.89,1.24.14,1.75.16c2.21.18,4.79.32,7.46.4,1.33,0,2.71.05,4.1.05l2.77,0a16.61,16.61,0,0,0,5.51.94h.13c2.44.48,4.82.83,7.11,1.14l63,8.31a99.78,99.78,0,0,0,13.1,1.07,44.69,44.69,0,0,0,13.69-2c.83-.25,1.67-.56,2.25-.79s1.29-.52,1.81-.76a32,32,0,0,0,6.09-3.64,29.46,29.46,0,0,0,1.1,15.39,31.41,31.41,0,0,0,17.82,18.25,40.23,40.23,0,0,0,15.43,2.9c1.35,0,2.76-.06,4.18-.17,1.11-.09,2.17-.21,3.21-.36l1,.45a58.34,58.34,0,0,0,22.1,4.34,56.93,56.93,0,0,0,17.29-2.64c7.64-2.41,14.11-6.22,19.85-9.59,2.69-1.59,5.47-3.23,8-4.5a23.43,23.43,0,0,1,9.56-2.74,4.63,4.63,0,0,1,2.17.4,29.55,29.55,0,0,1,3.55,2.91c1.09,1,2.19,2,3.32,2.88,6.83,5.6,14,8.44,21.2,8.44l1.33,0c14.72-.72,23.27-12.53,26.92-17.56A17.1,17.1,0,0,0,856,704.78c-2.94-2.14-7.34-4.07-11-4.07a12.56,12.56,0,0,0-3.66.55,18.53,18.53,0,0,0,3-2.85c5.15-6.06,9-15.06,4.25-63.93-1.52-15.59-3.68-32.48-5.75-47h.38a44.9,44.9,0,0,0,9.27-.94,22.86,22.86,0,0,0,2.72-.64c.74-.2,1.48-.43,2.21-.69a28.2,28.2,0,0,0,13.66-10,24.74,24.74,0,0,0,4.3-19.39,25.44,25.44,0,0,0-1-3.69A27.84,27.84,0,0,0,868,541.77a90.86,90.86,0,0,0,19.57-16.11c.44-.47.88-1,1.29-1.46l.46-.53c.35-.42.68-.83,1-1.27a42.5,42.5,0,0,0,8.5-16.36C901.15,496.52,899.07,486.64,893.23,479.58Z" transform="translate(-276.74 -273.01)"/><path className="cls-3" d="M830.57,688.9H437.44c-6.18,0-5.46-49.15-5.7-54.87A121.48,121.48,0,0,1,435,599.87q1.2-5.11,2.85-10.1a132.15,132.15,0,0,1,5.93-14.91c.86-1.81,1.73-3.59,2.67-5.37a148.21,148.21,0,0,1,12.06-19.23q2-2.67,4.07-5.27c1-1.25,2-2.5,3-3.73.56-.69,1.14-1.38,1.73-2,2.23-2.63,4.55-5.22,6.89-7.77.4-.46.8-.88,1.2-1.31.85-.93,1.71-1.83,2.56-2.77,1.78-1.89,3.57-3.78,5.38-5.64l.32-.32c.29-.32.61-.67.93-1s.77-.82,1.17-1.22.64-.67,1-1c1.09-1.11,2.15-2.26,3.25-3.38,3.35-3.48,6.71-7,10-10.57q1.73-1.83,3.41-3.75c.8-.88,1.6-1.78,2.39-2.69s1.66-1.92,2.48-2.9c0,0,0,0,0-.06,1.44-1.67,2.83-3.38,4.21-5.11,7-8.81,13.34-18.26,19.94-27.45l1.68-2.34a183.76,183.76,0,0,1,16.16-19.76,110,110,0,0,1,10-9.27c26.2-21.06,62.1-26.28,95.59-23.24,84,7.67,145.94,66.67,165.51,147.67C824.05,566.18,843.09,688.9,830.57,688.9Z" transform="translate(-276.74 -273.01)"/><path className="cls-4" d="M734.17,625.13H734a1.33,1.33,0,0,1-1.12-1.51,481.74,481.74,0,0,0-13.21-198.42,1.33,1.33,0,0,1,2.56-.73A484.34,484.34,0,0,1,735.48,624,1.32,1.32,0,0,1,734.17,625.13Z" transform="translate(-276.74 -273.01)"/><path className="cls-4" d="M715.75,455.57a37.11,37.11,0,0,0,15.31,11.95,45.66,45.66,0,0,0,6.66-20C730,445.84,721.29,449.94,715.75,455.57Z" transform="translate(-276.74 -273.01)"/><path className="cls-5" d="M753.91,404.74c0,.38-1.1.67-1.1,1.06s1.11,1.15,1.07,1.69c-.72,19.8-11.47,46.65-30.76,48.15a59.33,59.33,0,0,1-49.44-21.1c-.33-.39.46-1.47.15-1.88s-1.62,0-1.85-.31-.55-.71-.79-1.06a27,27,0,0,1-5.05-11c-.65-4,.24-8.46,3.13-11.37,4.58-4.63,12.17-3.92,18.53-2.42a34.46,34.46,0,0,1,1.39-18.44c2.1-5.73,7.22-10.7,13.32-11.2,5.27-.42,10.37,2.49,13.75,6.56s5.19,9.13,6.6,14.22a31.61,31.61,0,0,1,7.81-9.42c3.14-2.47,7.24-3.95,11.17-3.21,4.3.8,7.85,4.14,9.75,8.05A27.58,27.58,0,0,1,753.91,404.74Z" transform="translate(-276.74 -273.01)"/><path className="cls-4" d="M753.91,404.74a10.4,10.4,0,0,1,0,1.12c0,.53,0,1.09-.06,1.63a14.34,14.34,0,0,0-9.34-.5c-5.75,1.7-9.95,6.51-10.48,11.95a1.28,1.28,0,0,1-1,1.13,1.32,1.32,0,0,1-1.39-.49c-2.74-3.91-6-8.35-10.36-11.43-4.53-3.24-9.6-4.43-14-3.36-4.58,1.14-8.66,4.87-11.18,10.21-2.31,4.92-3.2,10.92-4,16.2a1.26,1.26,0,0,1-.8,1,1.28,1.28,0,0,1-1.3-.22,11.5,11.5,0,0,0-13.61-.5,10.23,10.23,0,0,0-2.82,3c-.59-.7-1.18-1.44-1.7-2.19a12.72,12.72,0,0,1,3-3,14.3,14.3,0,0,1,14.94-.62c.77-4.92,1.71-10.23,3.9-14.88,2.85-6,7.58-10.27,12.9-11.62,5.12-1.27,11,.11,16.12,3.75a42.33,42.33,0,0,1,9.24,9.66,17.4,17.4,0,0,1,11.67-11.14A17,17,0,0,1,753.91,404.74Z" transform="translate(-276.74 -273.01)"/><path className="cls-4" d="M771,464.18a12.49,12.49,0,0,1-.89,7.38,10,10,0,0,1-.55,1.14c-.08.22-1,.08-1.06.28s.54.74.41.93a33,33,0,0,1-7.51,8.76c-.63.52-1.27,1-1.92,1.48-.26.2-1.26,0-1.53.2s.28.71,0,.86A111.59,111.59,0,0,1,746.52,492c-2.66,1.41-7.88,4.57-10.1,4.4-.21,0-.18-.77-.32-.86s-.63.36-.73,0v0c-1.05-3.38,4.09-16.2,7.59-23.52.16-.36.59.15.74-.17s.12-1.61.29-1.95a27.52,27.52,0,0,1,1.53-2.7c2.52-3.61,5.53-7.11,9.45-9,.27-.19.35.41.64.27s.84-1,1.15-1.05a12.39,12.39,0,0,1,8.78.25c.21.09.06.63.25.74s.83-.19,1.06-.06A8.91,8.91,0,0,1,771,464.18Z" transform="translate(-276.74 -273.01)"/><path className="cls-6" d="M753.38,471.32h0c4.87.74,10.19,1.52,15.54,2.6a7,7,0,0,0,.65-1.21c-5.22-1.07-10.41-1.87-15.2-2.61a76.89,76.89,0,0,1,12.44-11.78,9,9,0,0,0-1.31-.68,79.08,79.08,0,0,0-11.81,11.23,35.66,35.66,0,0,1,3-11.49,7.83,7.83,0,0,0-.92.34,5.81,5.81,0,0,0-.86.44,37.9,37.9,0,0,0-2.7,12.36l0,.05c-.63.75-1.26,1.52-1.88,2.29-1.47,1.86-2.89,3.77-4.22,5.75a33.51,33.51,0,0,1-2.2-8.73c-.31.63-.67,1.33-1,2.12a34.28,34.28,0,0,0,2.31,7.89v0c-3.53,5.09-6.76,10.41-9.91,15.62v0a1.18,1.18,0,0,0,.48.68,1.83,1.83,0,0,0,.57.15c3.1-5.18,6.31-10.47,9.77-15.5A34.94,34.94,0,0,0,758,485.21c.5-.33,1-.68,1.48-1.06a35.78,35.78,0,0,1-12.6-4.38c1.45-2.07,3-4.11,4.53-6.09C752.09,472.88,752.72,472.07,753.38,471.32Z" transform="translate(-276.74 -273.01)"/><path className="cls-4" d="M860.86,561.78a12.42,12.42,0,0,1-6.07,4.28,9.25,9.25,0,0,1-1.21.36c-.18.06-1-.68-1.17-.63s.1.91-.17,1a32.9,32.9,0,0,1-11.53.29c-.81-.12-1.61-.27-2.39-.43-.3-.06-1.12-.91-1.41-1s-.07.67-.37.59a110,110,0,0,1-12.73-4c-2.83-1-8.67-2.78-10-4.54-.11-.18,1.3-.78,1.27-.95s-1.53-.09-1.35-.39v0c1.81-3.06,14.77-7.82,22.55-10.13.37-.12.22.8.55.7s1.34-1.25,1.72-1.35a27.86,27.86,0,0,1,3-.68c4.37-.54,9-.66,13,1,.32.08-.2.64.1.76s1.4-.12,1.67.05a12.4,12.4,0,0,1,5.7,6.69c.07.21-.78.5-.73.7s1,.46,1.09.73A8.88,8.88,0,0,1,860.86,561.78Z" transform="translate(-276.74 -273.01)"/><path className="cls-6" d="M862.41,554.72a7.63,7.63,0,0,0-.37-1.42,79.36,79.36,0,0,0-16.25-1.25,35.78,35.78,0,0,1,10.56-5.45,5.61,5.61,0,0,0-.88-.45,4.58,4.58,0,0,0-.89-.35,38,38,0,0,0-11,6.28l0,0c-1,0-2,.09-3,.14q-3.54.22-7.1.72a33.51,33.51,0,0,1,5-7.48c-.67.19-1.43.39-2.26.65a34,34,0,0,0-4.31,7v0c-6.15.79-12.25,2-18.23,3.11v0a1.15,1.15,0,0,0-.18.81,1.73,1.73,0,0,0,.26.53c5.93-1.17,12-2.33,18.06-3.13a34.82,34.82,0,0,0,4.71,11.7c.58.15,1.17.28,1.78.39a36,36,0,0,1-5.19-12.28c2.51-.32,5-.56,7.56-.72,1-.07,2-.13,3-.15h0c2.72,4.12,5.7,8.59,8.48,13.28a6.52,6.52,0,0,0,1.34-.32c-2.71-4.6-5.59-9-8.25-13A77.79,77.79,0,0,1,862.41,554.72Z" transform="translate(-276.74 -273.01)"/><path className="cls-4" d="M791.68,539.06a12.49,12.49,0,0,1,4.93,5.56,11.59,11.59,0,0,1,.5,1.16c.12.25-.37.68-.28.94s.7.18.74.36a33.07,33.07,0,0,1,1.58,11.43c0,.81-.09,1.62-.17,2.42,0,.33-.56.86-.59,1.19s.44.35.4.62a108.69,108.69,0,0,1-2.58,13.1c-.7,2.93-1.8,8.93-3.4,10.48a1.86,1.86,0,0,1-.49.32,1.13,1.13,0,0,1-.83-.09h0c-3.24-1.45-9.42-13.81-12.58-21.28-.35-.79-.63-1.53-.9-2.18a30.08,30.08,0,0,1-1-2.93c-1-4.28-1.65-8.86-.48-13.06a5.52,5.52,0,0,1,.25-.93,6,6,0,0,1,.35-.92,12.41,12.41,0,0,1,6-6.41,8.62,8.62,0,0,1,1.38-.52A8.86,8.86,0,0,1,791.68,539.06Z" transform="translate(-276.74 -273.01)"/><path className="cls-6" d="M799,560.93a36.07,36.07,0,0,1-11.63,6.52c-.59-2.46-1.11-5-1.55-7.43-.18-1-.36-2-.49-3v0c3.79-3.16,7.9-6.62,12.25-9.9a6.94,6.94,0,0,0-.46-1.3c-4.27,3.21-8.31,6.55-12,9.65a76.37,76.37,0,0,1-.57-17.12,8.62,8.62,0,0,0-1.38.52,79.62,79.62,0,0,0,.58,16.3,35.65,35.65,0,0,1-6.6-9.89,6,6,0,0,0-.35.92,5.52,5.52,0,0,0-.25.93A38.23,38.23,0,0,0,784,557.31l0,0c.14,1,.31,1.95.47,2.92.41,2.33.91,4.67,1.5,7a33.71,33.71,0,0,1-8-4.15c.27.65.55,1.39.9,2.18a34.1,34.1,0,0,0,7.44,3.5h0c1.47,6,3.31,12,5.12,17.77h0a1.1,1.1,0,0,0,.82.09,1.71,1.71,0,0,0,.49-.32c-1.82-5.76-3.65-11.66-5.12-17.6a35.12,35.12,0,0,0,11.11-6C798.88,562.14,799,561.54,799,560.93Z" transform="translate(-276.74 -273.01)"/><path className="cls-4" d="M836.76,518.92c-1.23,2.23-2.48,4.47-3.71,6.65-1,1.84-2,3.65-3.06,5.44-2.1,3.72-4.23,7.37-6.33,10.94-2.43,4.15-4.88,8.17-7.3,12.11-.4.64-.8,1.31-1.23,2s-.63,1-1,1.54a1.81,1.81,0,0,1-.19.29c-24.89,39.6-50.59,70.16-89.06,106.4-.78-.48-1.57-1-2.4-1.38,28.3-26.63,49.66-50.11,68.86-76.37,0,0,0,0,.05,0,.32-.45.64-.9,1-1.36.8-1.09,1.57-2.18,2.37-3.3,9.22-12.91,18-26.54,26.82-41.59,1.94-3.3,3.91-6.68,5.85-10.14,1-1.79,2-3.6,3.07-5.44,1.3-2.29,2.58-4.6,3.88-7a1.34,1.34,0,0,1,2.35,1.28Z" transform="translate(-276.74 -273.01)"/><path className="cls-4" d="M818.49,523.34a37.18,37.18,0,0,0,4.15,19,45.52,45.52,0,0,0,17.88-11.1C835.68,525,826.36,522.55,818.49,523.34Z" transform="translate(-276.74 -273.01)"/><path className="cls-5" d="M880.33,508.62c-.22.31-1.85-.39-2.1-.09s.7,1.8.32,2.18c-13.21,14.77-38.63,28.56-54.43,17.39a59.32,59.32,0,0,1-24.55-47.82c0-.44.73-.82.75-1.27s-.7-1-.66-1.5,0-.9.07-1.31a26.87,26.87,0,0,1,3.15-11.7c2.08-3.53,5.59-6.36,9.67-6.75,6.48-.63,11.87,4.76,15.8,10a34.64,34.64,0,0,1,12.85-13.3c5.28-3.06,12.39-3.61,17.41-.1,4.32,3,6.38,8.54,6.38,13.83s-1.83,10.34-4,15.16A31.65,31.65,0,0,1,873,481c4,.11,8.09,1.59,10.65,4.67,2.79,3.37,3.39,8.21,2.36,12.43A27.67,27.67,0,0,1,880.33,508.62Z" transform="translate(-276.74 -273.01)"/><path className="cls-4" d="M880.33,508.62c-.22.31-.45.58-.69.87s-.71.84-1.09,1.22a14.36,14.36,0,0,0-6.87-6.35c-5.51-2.36-11.81-1.35-15.7,2.5a1.26,1.26,0,0,1-1.45.25,1.3,1.3,0,0,1-.76-1.26c.38-4.76.71-10.26-.67-15.42-1.41-5.38-4.55-9.54-8.61-11.51-4.25-2.05-9.77-1.79-15.12.71-4.92,2.31-9.44,6.36-13.41,9.93a1.28,1.28,0,0,1-2.13-.73,11.47,11.47,0,0,0-10.14-9.08,10.25,10.25,0,0,0-4.12.53c0-.91,0-1.86.09-2.77a13.17,13.17,0,0,1,4.22-.36,14.35,14.35,0,0,1,11.9,9.08c3.73-3.3,7.85-6.78,12.5-9,6.05-2.82,12.39-3.06,17.34-.7,4.75,2.29,8.37,7.08,10,13.18a42,42,0,0,1,.93,13.34A17.43,17.43,0,0,1,872.67,502,17.05,17.05,0,0,1,880.33,508.62Z" transform="translate(-276.74 -273.01)"/><path className="cls-4" d="M549.25,666.41a1.33,1.33,0,0,1-1.21-.78A484.59,484.59,0,0,1,504.77,470.4a1.34,1.34,0,0,1,1.32-1.35,1.32,1.32,0,0,1,1.34,1.32,481.65,481.65,0,0,0,43,194.15,1.33,1.33,0,0,1-1.21,1.89Z" transform="translate(-276.74 -273.01)"/><path className="cls-4" d="M519.7,498.44a37.3,37.3,0,0,1-11.34,15.77,45.54,45.54,0,0,1-12-17.29C503.28,493.1,512.79,494.59,519.7,498.44Z" transform="translate(-276.74 -273.01)"/><path className="cls-5" d="M468.8,460.37c.07.37,2.52.34,2.63.71s-2,1.42-1.83,1.92c6.25,18.8,24.11,41.55,43,37.58a59.37,59.37,0,0,0,41.52-34.14c.16-.35-1-1.7-.87-2.06s1.72,0,1.89-.52.32-.83.46-1.23c1.32-3.87,2.25-7.93,1.75-12s-2.6-8.05-6.19-10c-5.7-3.15-12.78-.34-18.47,2.87a34.56,34.56,0,0,0-6.51-17.31c-3.62-4.9-9.93-8.24-15.93-7-5.18,1.07-9.25,5.3-11.35,10.16s-2.43,10.22-2.35,15.5A31.64,31.64,0,0,0,486.47,438c-3.71-1.48-8.06-1.75-11.63.06-3.9,2-6.37,6.18-7.1,10.47A27.68,27.68,0,0,0,468.8,460.37Z" transform="translate(-276.74 -273.01)"/><path className="cls-4" d="M468.8,460.37a10.8,10.8,0,0,0,.29,1.08c.16.51.32,1,.51,1.55a14.32,14.32,0,0,1,8.83-3.1c6,0,11.37,3.45,13.41,8.53a1.24,1.24,0,0,0,1.24.8,1.3,1.3,0,0,0,1.19-.85c1.54-4.52,3.43-9.7,6.74-13.89,3.43-4.37,8-6.94,12.47-7.14,4.72-.19,9.68,2.24,13.6,6.66,3.6,4.07,6.14,9.58,8.36,14.43a1.28,1.28,0,0,0,2.25.18,11.48,11.48,0,0,1,12.91-4.3,10.26,10.26,0,0,1,3.57,2.12c.37-.84.73-1.71,1-2.58a13.3,13.3,0,0,0-3.74-2,14.32,14.32,0,0,0-14.52,3.6c-2.11-4.51-4.51-9.34-7.91-13.19-4.44-5-10.16-7.73-15.64-7.52-5.27.21-10.49,3.17-14.42,8.12a41.93,41.93,0,0,0-6.16,11.87,17.43,17.43,0,0,0-14.33-7.43A17.12,17.12,0,0,0,468.8,460.37Z" transform="translate(-276.74 -273.01)"/><path className="cls-4" d="M469.05,522.23a12.47,12.47,0,0,0,2.93,6.83,9.52,9.52,0,0,0,.84.94c.13.17,1.14-.14,1.29,0s-.51.81-.32,1a32.9,32.9,0,0,0,9.67,6.3c.75.32,1.5.61,2.25.88.33.13,1.25-.16,1.57,0s-.1.58.15.65a110.62,110.62,0,0,0,13,3.25c2.94.61,8.84,2.18,10.92,1.4a1.6,1.6,0,0,0,.5-.32,1,1,0,0,0,.27-.78v0c.06-3.55-8.48-14.41-13.89-20.46-.23-.26-.67.27-.89,0s-.41-1.46-.7-1.77a28.16,28.16,0,0,0-2.22-2.16c-3.43-2.75-7.31-5.27-11.61-6-.31-.1-.47.24-.79.19s-.82-.44-1.14-.43a12.35,12.35,0,0,0-8.36,2.71c-.14.11.35.78.22.9s-1.07-.11-1.28.12A8.84,8.84,0,0,0,469.05,522.23Z" transform="translate(-276.74 -273.01)"/><path className="cls-6" d="M498.2,530.08v0a33.74,33.74,0,0,0,0-8.22c-.57-.65-1.11-1.22-1.58-1.74a33.42,33.42,0,0,1,.34,9c-1.84-1.52-3.74-3-5.67-4.33-.81-.56-1.63-1.13-2.44-1.67V523a38.4,38.4,0,0,0-6.06-11.11,6.55,6.55,0,0,0-1-.17,5.39,5.39,0,0,0-1-.07A35.8,35.8,0,0,1,487,521.86a78.79,78.79,0,0,0-14.5-7.47,9.34,9.34,0,0,0-1.06,1,77.12,77.12,0,0,1,15.25,7.81c-4.39,2.06-9.14,4.29-13.86,6.78a6.91,6.91,0,0,0,1,1c4.83-2.54,9.71-4.78,14.19-6.86h0c.84.54,1.68,1.13,2.52,1.73,2.06,1.45,4.09,3,6.05,4.57a35.77,35.77,0,0,1-10.85,7.74c.57.22,1.14.42,1.72.6a34.93,34.93,0,0,0,10.14-7.5c4.74,3.87,9.3,8,13.74,12.14a1.64,1.64,0,0,0,.5-.31,1.12,1.12,0,0,0,.27-.78v0C507.6,538.17,503,534,498.2,530.08Z" transform="translate(-276.74 -273.01)"/><path className="cls-4" d="M465.84,646.72a11.68,11.68,0,0,0,6.39,2.7,9.33,9.33,0,0,0,1.17.08,5.5,5.5,0,0,0,1.28,0,30.67,30.67,0,0,0,10.57-2c.72-.27,1.41-.56,2.09-.87s1.05-.45,1.55-.7a105.13,105.13,0,0,0,10.81-6.19c2.37-1.5,7.35-4.25,8.25-6.13a1.41,1.41,0,0,0,.13-.53,1,1,0,0,0-.32-.7l0,0c-2.24-2.43-15-4.21-22.56-4.78-.8-.07-1.54-.1-2.19-.14a28.29,28.29,0,0,0-2.89,0c-4.09.37-8.32,1.18-11.69,3.47a6,6,0,0,0-.75.49,5.61,5.61,0,0,0-.7.59,11.53,11.53,0,0,0-3.87,7.23,9.14,9.14,0,0,0-.06,1.37A8.31,8.31,0,0,0,465.84,646.72Z" transform="translate(-276.74 -273.01)"/><path className="cls-6" d="M463,640.59a72.26,72.26,0,0,1,15.3-4.6c.49-.08,1-.18,1.45-.24h0c.92-.19,1.87-.33,2.81-.47,2.33-.35,4.68-.63,7-.84.41,0,.82-.07,1.22-.08,5.69-.47,11.45-.61,17.08-.72a1.67,1.67,0,0,0,.14-.53,1,1,0,0,0-.32-.7l0,0c-5.67.13-11.47.27-17.23.77v0c-.48,0-1,.07-1.46.15-2.22.17-4.43.43-6.61.76-.92.14-1.83.29-2.72.45-.72.11-1.38.25-2,.38a74.07,74.07,0,0,0-14.57,4.35A9.14,9.14,0,0,0,463,640.59Z" transform="translate(-276.74 -273.01)"/><path className="cls-6" d="M473.4,649.5a5.5,5.5,0,0,0,1.28,0c1.61-4.82,3.44-9.49,5.11-13.78h0c.06-.18.11-.35.17-.5a.64.64,0,0,0-.26-.75l0,0a35.74,35.74,0,0,0-11.26-3.55,7.52,7.52,0,0,0-.75.5,5.61,5.61,0,0,0-.7.59,33.36,33.36,0,0,1,10.7,2.88l.95.44c-.07.22-.18.44-.27.68C476.72,640.21,475,644.78,473.4,649.5Z" transform="translate(-276.74 -273.01)"/><path className="cls-6" d="M487.34,646.65c.53-.21,1.05-.45,1.55-.7a32.47,32.47,0,0,0,2-11.6,5,5,0,0,0,0-.55.65.65,0,0,0-.13-.35c-.08-.09-.14-.2-.22-.3v0a32,32,0,0,0-5.32-5.53c-.8-.07-1.54-.1-2.19-.14a31.47,31.47,0,0,1,6.05,5.82c.21.25.41.5.6.76,0,.13,0,.27,0,.39A33.53,33.53,0,0,1,487.34,646.65Z" transform="translate(-276.74 -273.01)"/><path className="cls-4" d="M524.41,612.33a11.64,11.64,0,0,0-3.4,6,9.78,9.78,0,0,0-.21,1.16,6.27,6.27,0,0,0-.18,1.27,30.87,30.87,0,0,0,.83,10.73c.19.74.4,1.46.63,2.18a16.85,16.85,0,0,0,.53,1.61,100.33,100.33,0,0,0,4.95,11.43c1.22,2.53,3.4,7.78,5.16,8.88a1.78,1.78,0,0,0,.52.2,1,1,0,0,0,.73-.25h0c2.66-2,5.86-14.45,7.26-21.89.16-.79.27-1.52.39-2.16a28.54,28.54,0,0,0,.34-2.87c.09-4.1-.25-8.4-2.14-12a6.68,6.68,0,0,0-.41-.8,5.14,5.14,0,0,0-.51-.77,11.57,11.57,0,0,0-6.75-4.65,9.56,9.56,0,0,0-1.36-.21A8.27,8.27,0,0,0,524.41,612.33Z" transform="translate(-276.74 -273.01)"/><path className="cls-6" d="M535.18,636.88c.08-2.22.07-4.45,0-6.65q-.06-1.4-.15-2.76l0,0a35.42,35.42,0,0,0,4.78-10.79,4.64,4.64,0,0,0-.41-.8,5.09,5.09,0,0,0-.5-.77,33.19,33.19,0,0,1-4.06,10.32,74,74,0,0,0-2.7-15,9.42,9.42,0,0,0-1.35-.21,72.42,72.42,0,0,1,2.86,15.72c-4-2.08-8.36-4.33-12.88-6.41a7,7,0,0,0-.17,1.27c4.62,2.13,9,4.48,13.13,6.61v0c.08.93.12,1.89.15,2.84.09,2.35.11,4.72.06,7.08a33.43,33.43,0,0,1-11.89-3.65c.15.56.33,1.09.52,1.62a32.46,32.46,0,0,0,11.31,3.25c-.17,5.7-.66,11.45-1.19,17.06a1.5,1.5,0,0,0,.52.19,1,1,0,0,0,.73-.24l0,0c.5-5.65,1-11.42,1.15-17.2l0,0a32.06,32.06,0,0,0,6.09-4.66c.16-.79.27-1.52.39-2.16A31.39,31.39,0,0,1,535.18,636.88Z" transform="translate(-276.74 -273.01)"/><path className="cls-4" d="M576.72,688.9h-4.37c-2.66-1.89-5.27-3.75-7.85-5.64-1.36-1-2.72-2-4-3a447.07,447.07,0,0,1-52.64-46.38,1.48,1.48,0,0,1-.26-.24c-.4-.4-.8-.83-1.2-1.23s-1-1-1.47-1.52l0,0q-4.51-4.68-9.06-9.59l0,0c-2.61-2.82-5.22-5.69-7.88-8.65v0c-1.31-1.43-2.59-2.87-3.89-4.34-1.55-1.75-3.12-3.51-4.66-5.35a1.24,1.24,0,1,1,1.89-1.62c1.62,1.89,3.27,3.75,4.87,5.59,1.33,1.46,2.61,2.93,3.89,4.34,2.47,2.74,4.9,5.43,7.35,8.07,11,12,21.7,22.66,32.64,32.59l0,0c1,.86,1.86,1.71,2.82,2.56.4.32.75.64,1.15,1h0s0,.06.06.08c7.85,7,15.89,13.58,24.31,20l4,3C567.06,682.06,571.82,685.47,576.72,688.9Z" transform="translate(-276.74 -273.01)"/><path className="cls-4" d="M496.86,603.3a34.66,34.66,0,0,1,0,18.11,42.42,42.42,0,0,1-18.5-6.58C481.52,608.18,489.54,604.14,496.86,603.3Z" transform="translate(-276.74 -273.01)"/><path className="cls-5" d="M437.59,602.1a3.93,3.93,0,0,1,1.33.29,3.34,3.34,0,0,1,.7,1.27c15,10.85,40.86,18.4,53.06,5.09a55.35,55.35,0,0,0,12.92-48.44s-1.34-.59-1.42-1,.79-1.55.79-1.55c-.09-.39-.21-.81-.32-1.18a25.23,25.23,0,0,0-5.19-10c-2.59-2.8-6.35-4.69-10.15-4.24-6,.7-9.87,6.68-12.43,12.21A32.27,32.27,0,0,0,462.54,545c-5.42-1.75-12-.85-15.89,3.35-3.34,3.63-4.13,9-3.08,13.87s3.72,9.06,6.65,13a29.39,29.39,0,0,0-11.41.31,13.32,13.32,0,0,0-8.78,6.36c-1.88,3.62-1.48,8.15.31,11.79A25.47,25.47,0,0,0,437.59,602.1Z" transform="translate(-276.74 -273.01)"/><path className="cls-4" d="M437.59,602.1a10.13,10.13,0,0,0,.8.67c.4.3.82.62,1.23.89a13.41,13.41,0,0,1,5-7.15c4.56-3.24,10.5-3.56,14.8-.82a1.17,1.17,0,0,0,1.38-.06,1.22,1.22,0,0,0,.44-1.3c-1.29-4.26-2.68-9.21-2.44-14.19.23-5.18,2.26-9.59,5.57-12.19,3.47-2.71,8.55-3.56,13.93-2.34,4.94,1.13,9.86,3.93,14.18,6.39a1.22,1.22,0,0,0,1.21,0,1.23,1.23,0,0,0,.59-1.09,10.71,10.71,0,0,1,7.45-10.28,9.53,9.53,0,0,1,3.86-.33c-.18-.83-.38-1.69-.63-2.51a12.29,12.29,0,0,0-3.92.51A13.36,13.36,0,0,0,492,568.93c-4.06-2.26-8.5-4.62-13.17-5.69-6.07-1.38-11.9-.34-15.94,2.8-3.88,3-6.23,8.1-6.52,14a39.16,39.16,0,0,0,1.79,12.34,16.24,16.24,0,0,0-14.9,2.17A15.83,15.83,0,0,0,437.59,602.1Z" transform="translate(-276.74 -273.01)"/><path className="cls-7" d="M555.23,632.91c-23.45,6.9-46.94,13.8-69.76,22.56-6.73,2.58-13.6,5.45-18.53,10.73a20,20,0,0,0-5.4,12.56,11.53,11.53,0,0,0,0,1.44v0a13.61,13.61,0,0,0,1.67,5.8c2.21,3.86,6.21,6.29,9.83,8.92s7.19,6,7.75,10.44c.5,3.75-1.36,7.51-4.1,10.09a26,26,0,0,1-9.94,5.22c-13.71,4.29-29.23,3.22-41.64-4a43.59,43.59,0,0,1-20.69-28.81c-.13-.59-.24-1.2-.32-1.81a33.41,33.41,0,0,1-.37-4.58c-.24-15,8.49-29.1,20.21-38.5S450,628.2,464.38,623.86c8.34-2.56,16.75-4.79,25.22-6.84,7.37-1.82,14.8-3.47,22.23-5.06,6.47-1.36,14.27-4.37,20.85-4.37,5.17,0,10.14,6.28,13.26,10C546.9,618.7,556,632.67,555.23,632.91Z" transform="translate(-276.74 -273.01)"/><path className="cls-7" d="M581.69,688.67c23.73-5.72,42.08-16.85,65.14-24.83,18.44-6.38,36.54-14.2,52.45-25.49s29.6-26.24,37.16-44.22c8-19.12,8.77-40.9,3.91-61.07-10.8-44.86-54.19-71.46-98-75-41.43-3.31-87.05,12.42-112.5,46.44q-2.79,3.72-5.22,7.69a97.21,97.21,0,0,0-7.86,15.83,95.39,95.39,0,0,0-5.19,18.85c-6.1,36.85,10.43,76.51,40.9,98.12-6.2,4.62-13.72,9.15-17.15,16.08s-3.55,16,1.62,21.78c4.53,5,12.46,6.13,19,6.7C563.1,690.19,575.1,690.26,581.69,688.67Z" transform="translate(-276.74 -273.01)"/><path className="cls-8" d="M740.34,533.07c-10.79-44.87-54.19-71.47-98-75-41.43-3.3-87.06,12.43-112.52,46.43-1.86,2.48-3.59,5.06-5.22,7.7A98.18,98.18,0,0,0,516.76,528a94.87,94.87,0,0,0-5.19,18.86c-3.51,21.21.49,43.36,10.33,62.46-3.48.91-6.93,1.95-10.07,2.61-7.43,1.6-14.85,3.25-22.23,5.06-8.47,2.05-16.88,4.28-25.22,6.84C450,628.2,435.63,633.58,423.94,643s-20.45,23.48-20.21,38.5a33.41,33.41,0,0,0,.37,4.58c.08.61.19,1.22.32,1.81a43.59,43.59,0,0,0,20.69,28.81c12.41,7.24,27.93,8.31,41.65,4a26,26,0,0,0,9.93-5.22c2.74-2.58,4.6-6.34,4.1-10.09-.56-4.42-4.16-7.8-7.75-10.44s-7.61-5.06-9.82-8.92a13.48,13.48,0,0,1-1.68-5.8v0a11.53,11.53,0,0,1,0-1.44,20,20,0,0,1,5.4-12.57c4.93-5.27,11.8-8.14,18.53-10.73,18.65-7.15,37.75-13.06,56.9-18.75a92.34,92.34,0,0,0,10.1,8.29c-6.21,4.63-13.72,9.16-17.15,16.08s-3.54,16,1.62,21.81a14.12,14.12,0,0,0,3.41,2.74,18,18,0,0,0,1.62.88,34.68,34.68,0,0,0,10.81,2.74c.56.06,1.12.14,1.66.19l1.54.13c7.11.62,19.12.7,25.72-.9,23.73-5.73,42.07-16.86,65.13-24.84,18.45-6.37,36.56-14.2,52.45-25.48s29.61-26.23,37.17-44.23C744.49,575,745.21,553.22,740.34,533.07Z" transform="translate(-276.74 -273.01)"/><path className="cls-4" d="M461.54,678.76a11.53,11.53,0,0,0,0,1.44,13,13,0,0,0-10.15.3c-4.1,2-7.13,7.16-7,12.06a.66.66,0,0,1-1.3.16,10.72,10.72,0,0,0-10.63-8.1c-5.13.27-9.71,4.18-10.22,8.74a.67.67,0,0,1-1.33-.11,9.23,9.23,0,0,0-5-8.55A9.33,9.33,0,0,0,406,686a7.54,7.54,0,0,0-1.57,1.86c-.13-.58-.24-1.2-.32-1.81a8,8,0,0,1,1-1.06,10.53,10.53,0,0,1,11.26-1.49,10.64,10.64,0,0,1,5.44,6.55,12.73,12.73,0,0,1,10.51-6.77,12.13,12.13,0,0,1,10.95,6.34,14.58,14.58,0,0,1,7.5-10.33A14.05,14.05,0,0,1,461.54,678.76Z" transform="translate(-276.74 -273.01)"/><path className="cls-7" d="M800.43,666A133.83,133.83,0,0,0,787,611.06a81,81,0,0,0,9.93-24,2.52,2.52,0,0,0,.05-.77,104,104,0,0,0-6.59-27s3.32-72.76,2.71-73.27a2.66,2.66,0,0,0-.35-.32,16.15,16.15,0,0,0-9.16-3.78c-5-.43-10,.91-14.91,2-12.93,2.8-28.23,10.06-38.89,20.79a124.4,124.4,0,0,0-37-3.08c-1.33.06-2.72.16-4.1.27a131.74,131.74,0,0,0-30.34,5.86c-12.71-6.71-27.78-9.52-42-10.61-6.12-.48-12.43-1.2-18.53-.16-4.52.8-9,2.77-12,6.13a12.76,12.76,0,0,0-1,1.22c-4,5.51-3.57,12.83-2.61,19.12a144.59,144.59,0,0,0,3.46,16.72,211.91,211.91,0,0,0,10.16,29c-.48,1.3-.92,2.58-1.34,3.86-8,12.09-16.15,24.35-22.08,37.36-7.83,17.2-16.45,32.33-16.77,51.21-.13,7.14,3,17.59,7.83,22.81,5,5.38,13,6.66,20.32,7.65l63,8.3c6.65.88,13.65,1.71,19.94-.29.42-.13.85-.29,1.25-.45s.67-.27,1-.43a16.33,16.33,0,0,0,6.69-5.7,9.43,9.43,0,0,0,.82-1.3c2-3.57,2.56-7.78.56-11.34,13.1-.86,26.89-3,40-4.48l.64-.08a11.72,11.72,0,0,0-.3,2.35A15.41,15.41,0,0,0,723,690.85a11,11,0,0,0,1.2,1c.16.13.32.24.48.35a29.14,29.14,0,0,0,11.45,4.31c.43.1.88.18,1.33.24,1.76.26,3.52.45,5.25.56a95.66,95.66,0,0,0,39.51-5.73c6.39-2.37,13-5.83,16-11.9C800.38,675.46,800.54,670.62,800.43,666Z" transform="translate(-276.74 -273.01)"/><path className="cls-4" d="M542,686.51a14.81,14.81,0,0,1-1.62-.88,21.86,21.86,0,0,1,.37-12.59.69.69,0,0,1,.85-.43.66.66,0,0,1,.4.86A21.05,21.05,0,0,0,542,686.51Z" transform="translate(-276.74 -273.01)"/><path className="cls-4" d="M554.43,689.44c-.53-.05-1.09-.13-1.65-.19a25,25,0,0,1-2.71-12.4.64.64,0,0,1,.69-.64.67.67,0,0,1,.64.69A23.26,23.26,0,0,0,554.43,689.44Z" transform="translate(-276.74 -273.01)"/><path className="cls-9" d="M649.68,531.52A206.33,206.33,0,0,1,628.83,563,270.84,270.84,0,0,1,602,583.87l-.26.19-1.12-2.37c-6.15-13.08-11.61-26.55-15.26-40.45a144.59,144.59,0,0,1-3.46-16.72c-1-6.28-1.83-13.61,2.14-19.12.29-.42.64-.82,1-1.22C608.81,504.58,632.9,514.56,649.68,531.52Z" transform="translate(-276.74 -273.01)"/><path className="cls-9" d="M798.65,506.38c-.13,5.62-.53,11.18-1.2,16.72A274.53,274.53,0,0,1,789,564.24c-.24.8-.46,1.62-.69,2.42l-.24-.16a229.26,229.26,0,0,1-34.43-27.69l0,0a134.41,134.41,0,0,1,39.41-52.69,9.24,9.24,0,0,1,1.65,1.81C798.44,492.91,798.81,500.15,798.65,506.38Z" transform="translate(-276.74 -273.01)"/><path className="cls-4" d="M688.62,658.47c-18.82,0-36.83-3.44-52.54-10.08-20-8.45-36.89-22.44-47.53-39.38a.67.67,0,0,1,1.13-.71c10.49,16.72,27.16,30.52,46.92,38.87,17.93,7.57,38.92,10.93,60.67,9.73,18.76-1,35.75-5.25,50.5-12.48,16.51-8.08,29.89-19.88,38.69-34.1a.67.67,0,0,1,1.14.7c-8.94,14.44-22.51,26.4-39.24,34.6-14.92,7.31-32.08,11.55-51,12.6Q693,658.47,688.62,658.47Z" transform="translate(-276.74 -273.01)"/><path className="cls-1" d="M764.67,534.69c-2.37,5.33-8,8.68-13.73,9.64s-11.67-.08-17.28-1.57c-11.53-3-22.9-8-31-16.72-5.91-6.34-9.91-15-9.91-23.78a3.89,3.89,0,0,1,0-.59c33.73-1.86,56.58,7.54,72,20.69A16.77,16.77,0,0,1,764.67,534.69Z" transform="translate(-276.74 -273.01)"/><path className="cls-1" d="M676.12,599.77c-7.11,8.89-17.31,15-28.28,18.05a58.67,58.67,0,0,1-37.54-2,55,55,0,0,1-18-12.11,45.53,45.53,0,0,1-3.59-4.07c.24-2.21.59-4.69,1-7.38,3-17.84,11.34-45.05,34-65a88,88,0,0,1,11.63-8.73,51.88,51.88,0,0,1,6.1.37c17.71,2.16,34,14,41.14,30.41S687.27,585.84,676.12,599.77Z" transform="translate(-276.74 -273.01)"/><path className="cls-4" d="M662.93,584a11.39,11.39,0,1,1-11.39-11.38A11.39,11.39,0,0,1,662.93,584Z" transform="translate(-276.74 -273.01)"/><path className="cls-4" d="M750.63,576.22a11.39,11.39,0,1,1-11.39-11.39A11.38,11.38,0,0,1,750.63,576.22Z" transform="translate(-276.74 -273.01)"/><path className="cls-4" d="M707.64,592.78c-.7,0-1.41,0-2.11.07a26.09,26.09,0,0,0-5.26,1,35.88,35.88,0,0,0-3.54,1.19,8.79,8.79,0,0,0-3,1.73,2.75,2.75,0,0,0-.84,1.51,2.55,2.55,0,0,0,.88,2.11,7.54,7.54,0,0,0,2,1.23c2.85,1.36,5.75,2.64,8.57,4,.44.21.85.58,1.35.33a3.7,3.7,0,0,0,1-.76,12.29,12.29,0,0,1,1-.87l2.28-1.85a41.41,41.41,0,0,0,5.27-4.62,4.12,4.12,0,0,0,.81-1.22,1.75,1.75,0,0,0,0-1.42,3.68,3.68,0,0,0-2-1.33,18.13,18.13,0,0,0-2.71-.75A19.71,19.71,0,0,0,707.64,592.78Z" transform="translate(-276.74 -273.01)"/><path className="cls-4" d="M721.31,605.46a.89.89,0,1,0-1,1.45c2.17,1.53,4.28,3.42,3.49,5.73a5.58,5.58,0,0,1-3.67,3.48,7.85,7.85,0,0,1-6.73-.94c-2.72-1.89-4.44-5-6.11-7.94-.37-.66-.75-1.3-1.12-1.93l0-.06a.89.89,0,0,0-.59-1.11.83.83,0,0,0-.54,0,.87.87,0,0,0-.54.11.9.9,0,0,0-.29,1.22l0,0-.36,1.19c-1,3.28-2,6.66-3.81,9.45a8.58,8.58,0,0,1-6.88,3.83,5.47,5.47,0,0,1-4.76-2.6c-1.39-2.13.24-4.56,2-6.66a.88.88,0,0,0-1.35-1.14c-1.34,1.57-4.47,5.24-2.16,8.77a7.26,7.26,0,0,0,6.24,3.4,7.69,7.69,0,0,0,1.07-.07,10.57,10.57,0,0,0,7.29-4.56,35.92,35.92,0,0,0,3.91-9.51l.27.47c1.77,3.15,3.59,6.41,6.65,8.54a9.63,9.63,0,0,0,6.59,1.54,9.73,9.73,0,0,0,1.7-.38,7.26,7.26,0,0,0,4.79-4.59C726.77,609.33,722.94,606.62,721.31,605.46Z" transform="translate(-276.74 -273.01)"/><path className="cls-4" d="M763,589.77a.67.67,0,0,1-.19-1.31L817.29,572a.67.67,0,0,1,.38,1.28l-54.46,16.45A.69.69,0,0,1,763,589.77Z" transform="translate(-276.74 -273.01)"/><path className="cls-4" d="M762.18,596.94a.66.66,0,0,1-.66-.61.66.66,0,0,1,.6-.72l57.23-5.34a.69.69,0,0,1,.72.6.66.66,0,0,1-.6.73l-57.23,5.33Z" transform="translate(-276.74 -273.01)"/><path className="cls-4" d="M813.63,609.54h-.06l-51.29-4.86a.68.68,0,0,1-.6-.73.7.7,0,0,1,.73-.6l51.28,4.87a.67.67,0,0,1-.06,1.33Z" transform="translate(-276.74 -273.01)"/><path className="cls-4" d="M645.1,608h-.05l-60.67-4.67a.66.66,0,0,1-.61-.72.65.65,0,0,1,.71-.61l60.67,4.67a.67.67,0,0,1,0,1.33Z" transform="translate(-276.74 -273.01)"/><path className="cls-4" d="M585.85,621.66a.65.65,0,0,1-.66-.59.67.67,0,0,1,.59-.74l61.49-6.82a.67.67,0,0,1,.73.59.65.65,0,0,1-.58.73l-61.5,6.83Z" transform="translate(-276.74 -273.01)"/><path className="cls-4" d="M595.35,638.06a.67.67,0,0,1-.19-1.31l53.28-15.59a.67.67,0,0,1,.37,1.28L595.54,638Z" transform="translate(-276.74 -273.01)"/><path className="cls-4" d="M756,655.92a39.24,39.24,0,0,0-39,20.55l.64-.08a12.68,12.68,0,0,0-.29,2.35,38,38,0,0,1,38.47-21.52.67.67,0,0,0,.75-.58A.65.65,0,0,0,756,655.92Z" transform="translate(-276.74 -273.01)"/><path className="cls-4" d="M731.05,674.45a31.05,31.05,0,0,0-8,16.4,9.35,9.35,0,0,0,1.2,1,30.08,30.08,0,0,1,7.8-16.45.67.67,0,0,0-1-.91Z" transform="translate(-276.74 -273.01)"/><path className="cls-4" d="M743,678.39a.62.62,0,0,0-.9.19,34.52,34.52,0,0,0-5.91,17.89,9.47,9.47,0,0,0,1.33.24,33.26,33.26,0,0,1,5.67-17.39A.66.66,0,0,0,743,678.39Z" transform="translate(-276.74 -273.01)"/><path className="cls-4" d="M639.91,656.63a71.19,71.19,0,0,0-17.43.4l0,0a25.82,25.82,0,0,0-19.71-7.76.67.67,0,0,0-.65.69.64.64,0,0,0,.69.64,24.66,24.66,0,0,1,18,6.72,115.53,115.53,0,0,0-26.38,7.94.66.66,0,0,0-.35.87.67.67,0,0,0,.87.35c16.87-7.12,31.53-9.89,44.82-8.49,16.45,1.74,30.76,10.63,37.34,23.19a.66.66,0,0,0,.59.36.58.58,0,0,0,.31-.08.66.66,0,0,0,.28-.9C671.5,667.57,656.8,658.41,639.91,656.63Z" transform="translate(-276.74 -273.01)"/><path className="cls-4" d="M658.7,687.21a.67.67,0,0,0-.93.13.68.68,0,0,0,.13.93,28.13,28.13,0,0,1,8.82,11.9c.42-.13.85-.29,1.25-.45A29.26,29.26,0,0,0,658.7,687.21Z" transform="translate(-276.74 -273.01)"/><path className="cls-4" d="M668.58,682.36a.73.73,0,0,0-1,.08.67.67,0,0,0,.08.93,32,32,0,0,1,8,10.23,10.25,10.25,0,0,0,.83-1.31A33.35,33.35,0,0,0,668.58,682.36Z" transform="translate(-276.74 -273.01)"/><path className="cls-4" d="M574.45,690.89a.93.93,0,0,1-.23,0c-7.68-2.75-14.1-9.55-17.16-18.18-2.61-7.33-2.92-16.07-.9-25.26,1.84-8.36,5.35-16.35,8.88-23.74a388.84,388.84,0,0,1,27.86-48.9.66.66,0,0,1,1.1.74,390,390,0,0,0-27.76,48.73c-3.49,7.32-7,15.22-8.78,23.45-2,8.95-1.67,17.44.85,24.54,2.93,8.25,9.05,14.75,16.36,17.37a.66.66,0,0,1-.22,1.29Z" transform="translate(-276.74 -273.01)"/><path className="cls-4" d="M559,639a.65.65,0,0,1-.51-.24c-19.21-23-27.44-55-21.47-83.51a.66.66,0,0,1,1.3.27c-5.88,28.14,2.24,59.71,21.19,82.39A.67.67,0,0,1,559,639Z" transform="translate(-276.74 -273.01)"/><path className="cls-4" d="M538.83,631.13a.65.65,0,0,1-.46-.19,93.45,93.45,0,0,1-17.79-23.64.66.66,0,0,1,.27-.9.67.67,0,0,1,.9.28A92.31,92.31,0,0,0,539.3,630a.66.66,0,0,1,0,.94A.64.64,0,0,1,538.83,631.13Z" transform="translate(-276.74 -273.01)"/><path className="cls-10" d="M809.12,665.17A48.71,48.71,0,0,1,804.45,686a11.11,11.11,0,0,1-.59,1.2,44.75,44.75,0,0,1-3.27,5.56c-.21.35-.45.67-.69,1a45.54,45.54,0,0,1-4.15,5c-.26.28-.54.56-.82.85-.81.85-1.66,1.65-2.55,2.42l-.83.71a49.12,49.12,0,0,1-64.82-1.41c-.32-.31-.65-.61-1-.92a30.22,30.22,0,0,1-2.42-2.51c-.35-.37-.68-.74-1-1.13a47.25,47.25,0,0,1-4.6-6.43v0c-.35-.57-.67-1.11-1-1.7a48.67,48.67,0,0,1-4.47-11.3v0c-.28-1.09-.52-2.18-.7-3.31V674a47.55,47.55,0,0,1-.82-8.83,48.78,48.78,0,0,1,7.5-26.09c.19-.33.39-.65.61-1a46.83,46.83,0,0,1,3.22-4.34c.24-.3.5-.61.77-.91a44.94,44.94,0,0,1,4.51-4.54l1-.85a47.8,47.8,0,0,1,5.06-3.73c.39-.26.8-.52,1.22-.76a48.8,48.8,0,0,1,25.29-7,50.05,50.05,0,0,1,7.5.57h0a29.6,29.6,0,0,1,3.09.61h0a45.54,45.54,0,0,1,7.63,2.33c.63.24,1.22.5,1.81.79h0a48,48,0,0,1,10.72,6.56c.4.31.77.63,1.14,1a47.09,47.09,0,0,1,7.93,8.63c.26.35.53.7.77,1.07A48.86,48.86,0,0,1,809.12,665.17Z" transform="translate(-276.74 -273.01)"/><path className="cls-4" d="M727.52,641.45c.46-.57.93-1.14,1.41-1.68.79-.9,1.6-1.75,2.42-2.6.29-.28.57-.56.85-.82a63.34,63.34,0,0,1,5.15-4.56c.3-.26.63-.5,1-.74,1.61-1.27,3.31-2.44,5.06-3.56l1.13-.71a72.41,72.41,0,0,1,26-9.62,29.6,29.6,0,0,0-3.09-.61h0a71.07,71.07,0,0,0-24.22,9.68c-2.81-1.22-5.66-2.31-8.56-3.25-.42.24-.83.5-1.22.77a90.26,90.26,0,0,1,8.67,3.18c-1.7,1.11-3.35,2.31-5,3.6a88.44,88.44,0,0,0-8.76-3.06l-1,.85a81.7,81.7,0,0,1,8.78,3,68.2,68.2,0,0,0-5.06,4.6c-2.7-1.11-5.45-2.14-8.24-3-.26.3-.52.61-.76.91,2.77.88,5.49,1.88,8.18,3-.75.74-1.47,1.52-2.16,2.31s-1.11,1.31-1.64,2c-2.5-1-5-2-7.61-2.9-.21.31-.41.63-.61,1,2.53.85,5,1.81,7.48,2.84A71,71,0,0,0,711.6,674v.06c.18,1.13.42,2.22.7,3.31a70.82,70.82,0,0,1,14.5-35C727,642,727.28,641.73,727.52,641.45Z" transform="translate(-276.74 -273.01)"/><path className="cls-4" d="M735.63,645.26q1.27-1.47,2.61-2.88c.46-.48.92-1,1.4-1.41.26-.27.52-.53.81-.79a65.78,65.78,0,0,1,5.12-4.49c.3-.26.61-.5.91-.74,1.62-1.24,3.27-2.4,5-3.51.34-.22.67-.44,1-.65A75.69,75.69,0,0,1,780,620.28a18.63,18.63,0,0,0-1.81-.79,78.11,78.11,0,0,0-26.79,10.68l-1,.68c-1.68,1.11-3.34,2.31-4.93,3.55-.31.24-.63.48-.94.75-1.76,1.41-3.46,2.92-5.08,4.49-.28.28-.57.54-.81.82-.41.4-.8.79-1.17,1.18-1,1-1.9,2.05-2.79,3.12-.24.28-.5.57-.74.87a77.12,77.12,0,0,0-17.14,43.06c.31.59.63,1.13,1,1.7a76.22,76.22,0,0,1,17.16-44.26Z" transform="translate(-276.74 -273.01)"/><path className="cls-4" d="M744.63,650.36c.22-.24.46-.48.68-.7,1.17-1.17,2.42-2.33,3.68-3.42.28-.26.57-.5.85-.74a65.74,65.74,0,0,1,5.26-4c.3-.24.63-.46.95-.68,1.71-1.15,3.49-2.24,5.3-3.29.35-.17.7-.37,1-.56a77.86,77.86,0,0,1,29.5-9.16c-.38-.33-.75-.65-1.14-1a79.36,79.36,0,0,0-29.34,9.42c-.37.19-.72.39-1.07.61-1.81,1-3.55,2.14-5.28,3.29-.3.22-.63.44-.93.68-1.83,1.28-3.58,2.64-5.28,4.07-.28.27-.57.51-.85.75-1.2,1-2.35,2.13-3.46,3.24-.29.29-.57.57-.85.88s-.53.54-.79.82a78.84,78.84,0,0,0-20.56,46.24c.33.4.66.77,1,1.14a77.83,77.83,0,0,1,20.49-46.81Z" transform="translate(-276.74 -273.01)"/><path className="cls-4" d="M779.36,652.85a147.82,147.82,0,0,1,24.5,34.38,12.1,12.1,0,0,0,.59-1.2,148.07,148.07,0,0,0-24.33-33.94,119,119,0,0,0-8.85-8.31,75.83,75.83,0,0,1,29.32-6.28c-.24-.37-.5-.72-.76-1.07A77.32,77.32,0,0,0,770.34,643c-.4.16-.77.33-1.14.51-1.94.89-3.84,1.85-5.69,2.92-.35.17-.67.37-1,.56-1.86,1.09-3.67,2.27-5.41,3.49-.31.22-.61.44-.92.68-1.54,1.13-3.07,2.31-4.53,3.57-.07,0-.11.11-.17.16-.29.24-.55.48-.83.76a76.94,76.94,0,0,0-24.86,44.84c.31.31.64.61,1,.92a76.07,76.07,0,0,1,24.79-45.13,130.23,130.23,0,0,1,40,46.55c.28-.24.56-.48.82-.72a130.7,130.7,0,0,0-40-46.57c1.52-1.31,3.12-2.55,4.75-3.71a117,117,0,0,1,12.19,10.49,119.56,119.56,0,0,1,25.63,37.37c.29-.29.57-.57.83-.85a120.25,120.25,0,0,0-25.68-37.3A113.11,113.11,0,0,0,758,651.17c1.74-1.22,3.53-2.38,5.36-3.42a118.52,118.52,0,0,1,10.83,10.09c9.31,9.79,17.66,21.43,25.68,35.95.24-.33.48-.65.7-1-8-14.39-16.3-25.95-25.57-35.69a118.12,118.12,0,0,0-10.59-9.92,62.45,62.45,0,0,1,5.71-2.9A119.23,119.23,0,0,1,779.36,652.85Z" transform="translate(-276.74 -273.01)"/><path className="cls-10" d="M746.49,735.06a41.9,41.9,0,0,1-16-3.13,27.53,27.53,0,0,1-4.89-2.58,30,30,0,0,1-19-.25,15.34,15.34,0,0,1-8.86-8.81c-2.7-7.6,2.36-15.7,8-20.74,1.73-1.56,3.6-3,5.41-4.43,4.13-3.22,8-6.27,10.66-10.48a1.09,1.09,0,1,1,1.85,1.16c-2.83,4.53-7.07,7.84-11.17,11-1.78,1.39-3.62,2.83-5.3,4.33-5.11,4.58-9.73,11.81-7.4,18.4a13.42,13.42,0,0,0,7.64,7.52,24,24,0,0,0,11.25,1.41,26.35,26.35,0,0,0,4.82-.79,15.52,15.52,0,0,1-1.2-1.24,11.15,11.15,0,0,1-2.74-9.66,7.94,7.94,0,0,1,7.86-6.26c3.76.25,6.95,3.92,6.95,8a11.32,11.32,0,0,1-5.48,9.17c-.3.19-.61.38-.94.55a26.67,26.67,0,0,0,3.34,1.63,39.92,39.92,0,0,0,27,1.17c5.69-1.8,11-4.92,16.11-7.93,3-1.76,6.08-3.57,9.24-5.14,6.33-3.12,18.46-7.52,28.56-1.92a38.93,38.93,0,0,1,6.85,5.24c.9.81,1.8,1.62,2.74,2.38,3.71,3,7,4.43,10.13,4.31,5.54-.27,9.67-5.34,13.1-10.08a1.09,1.09,0,0,1,1.76,1.28c-3.72,5.15-8.25,10.66-14.75,11-3.68.19-7.48-1.39-11.63-4.8-.95-.79-1.88-1.61-2.81-2.44a36.52,36.52,0,0,0-6.45-5c-9.24-5.12-20.59-1-26.53,2-3.1,1.53-6.15,3.32-9.1,5.06-5.23,3.08-10.64,6.26-16.56,8.13A41.4,41.4,0,0,1,746.49,735.06Zm-19.44-22.35a5.86,5.86,0,0,0-5.32,4.59,9.15,9.15,0,0,0,2.27,7.75,13.5,13.5,0,0,0,1.93,1.83,14.06,14.06,0,0,0,1.84-1,9.11,9.11,0,0,0,4.47-7.33c0-2.93-2.3-5.66-4.92-5.84Z" transform="translate(-276.74 -273.01)"/><path className="cls-6" d="M656,412.45a12.87,12.87,0,0,0,7.5,5.86l13.83,3.25c2.82.67,3,2.3.39,3.62l-12.78,6.47a13.39,13.39,0,0,0-6.06,7.5l-3.52,13.71c-.72,2.8-2.37,3-3.67.44l-6.34-12.51a13,13,0,0,0-7.5-5.86L624,431.68c-2.83-.66-3-2.29-.39-3.61l12.77-6.48a13.36,13.36,0,0,0,6.06-7.5l3.52-13.7c.72-2.81,2.37-3,3.67-.45Z" transform="translate(-276.74 -273.01)"/><path className="cls-6" d="M588,408.37a12.87,12.87,0,0,0,7.5,5.86l13.83,3.25c2.82.67,3,2.3.39,3.62l-12.78,6.47a13.38,13.38,0,0,0-6.06,7.51l-3.52,13.7c-.72,2.8-2.37,3-3.67.44l-6.34-12.51a13,13,0,0,0-7.5-5.86L556,427.6c-2.82-.66-3-2.29-.39-3.61l12.78-6.47a13.42,13.42,0,0,0,6.06-7.51l3.52-13.7c.72-2.81,2.37-3,3.67-.45Z" transform="translate(-276.74 -273.01)"/><path className="cls-6" d="M632.17,362.62a11.08,11.08,0,0,0,4.31,6.95l10.19,6.71c2.08,1.37,1.74,2.73-.76,3l-12.21,1.44a11.48,11.48,0,0,0-7.11,4.25l-6.89,10c-1.4,2.05-2.8,1.72-3.09-.73l-1.41-12a11,11,0,0,0-4.32-6.94l-10.18-6.71c-2.08-1.37-1.74-2.74.76-3l12.21-1.44a11.5,11.5,0,0,0,7.11-4.26l6.89-10c1.41-2.05,2.79-1.72,3.08.72Z" transform="translate(-276.74 -273.01)"/><path className="cls-11" d="M722.21,668.32c-.78-.48-1.57-1-2.4-1.38" transform="translate(-276.74 -273.01)"/><path className="cls-12" d="M400.47,484.79q14.77.38,29,2.18c-.69,2.74-1.32,5.5-1.88,8.26a177.15,177.15,0,0,0-74.16,32.44q-.57-8.32-.55-16.69a190.31,190.31,0,0,1,25-12.9q-12.27,1.37-24.75,3.82.26-5.86.83-11.72a196.88,196.88,0,0,1,26.6-11.1q-12.58.36-25.49,1.86,1.17-8.25,3-16.43a296.6,296.6,0,0,1,76.31,6.64q-1.47,4-2.71,8.12A175.78,175.78,0,0,0,400.47,484.79Z" transform="translate(-276.74 -273.01)"/><path className="cls-12" d="M420.6,438.61q-3,5.77-5.45,11.69a30.15,30.15,0,0,0,8.29-1.18c2.18-.7,3.54-1.61,4.12-2.78,1.18-2.41,0-4.79-3.64-7.15q5.38,1,10.62,2.18c7.43,4.43,9.93,8.61,8,12.48-1.67,3.34-5.69,5.37-12.37,6.72s-15.12,1.86-25.62,1.88a77.47,77.47,0,0,1-15.88-1.37c-4.78-1-8.08-2.38-9.81-4.32a6.77,6.77,0,0,1-1.25-7.06,11.78,11.78,0,0,1,3.82-5.07,28,28,0,0,1,8-4.46,42.91,42.91,0,0,1,11.65-2.52,63,63,0,0,1,10.48-.16C414.19,437.7,417.2,438.07,420.6,438.61Zm-16.71,11.63c.75-1.93,1.54-3.84,2.36-5.75a27.38,27.38,0,0,0-7.77.49c-2.05.49-3.25,1.18-3.56,2s.29,1.59,1.84,2.19a21.29,21.29,0,0,0,6.45,1Z" transform="translate(-276.74 -273.01)"/><path className="cls-12" d="M374.94,416.29a246.07,246.07,0,0,1,79.54,15.94c-2.15,3.07-4.18,6.2-6.09,9.36a241.88,241.88,0,0,0-80.08-10.44Q371.33,423.64,374.94,416.29Z" transform="translate(-276.74 -273.01)"/><path className="cls-12" d="M444.11,400.63a243.11,243.11,0,0,1,24.3,11.64,9.62,9.62,0,0,1-2.56,6.6c-2.85,3.31-7.45,4.68-14.3,4.62S436.32,422,426,419.31c-7.63-2-14.25-4.54-19.61-8.2s-6.49-8.17-2.85-13.49c1.73-2.53,5.05-5.09,9.93-7.4a256.64,256.64,0,0,1,27.09,9c-4.73.92-7.83,2.41-9.21,4.2a2.5,2.5,0,0,0-.38,2.91,5.21,5.21,0,0,0,3.13,2.18c3.88,1.29,6.65.82,8.52-1.5C444.4,404.84,444.9,402.74,444.11,400.63Z" transform="translate(-276.74 -273.01)"/><path className="cls-12" d="M424,372.15c3.33-3.57,9.32-5.33,17.38-4.73s16.41,3.51,24.73,8.63,13.58,10.5,16.26,15.34,2.46,8.53-.47,11.15c-2.7,2.41-7.22,2.73-14.1,1.43s-14.86-4-24.23-7.91c-8.62-3.62-15.13-7.28-19-11.64S420.49,375.93,424,372.15ZM460.53,389c.61-.58.55-1.37-.18-2.4a10.75,10.75,0,0,0-3.78-3,17,17,0,0,0-5.43-2c-1.63-.24-2.79,0-3.44.62s-.61,1.52.19,2.51a12.58,12.58,0,0,0,4.16,2.93,18.09,18.09,0,0,0,5.16,1.72C458.84,389.69,460,389.55,460.53,389Z" transform="translate(-276.74 -273.01)"/><path className="cls-12" d="M441.16,357.44q6.19-5.44,12.9-10.53,3.54,2,7,4.14c-2.76-4.58-2.55-8.07.73-10.36,3.93-2.73,10.2-2.65,18,.67-2.93-6.31-2.62-10.57,1-12.64a12.85,12.85,0,0,1,7.13-1.53,20.64,20.64,0,0,1,8.4,2.4,41.7,41.7,0,0,1,7.75,5.09,116.13,116.13,0,0,1,10.69,10.63,255.76,255.76,0,0,1,18.79,23.47q-5.62,2.46-11,5.18a250.66,250.66,0,0,0-19-20.77,74.68,74.68,0,0,0-9.78-8.47c-1.57-1-3-1.11-4.14-.43-.83.47-1.07,1.4-.71,2.76a254.73,254.73,0,0,1,29.54,29.05q-5.3,2.83-10.31,5.93a252,252,0,0,0-21.06-19,75.44,75.44,0,0,0-10.63-7.55c-1.69-.84-3.09-.88-4.15-.13-.65.46-.78,1.39-.39,2.78a251.75,251.75,0,0,1,32.41,26.34q-5.2,3.38-10.1,7A255.48,255.48,0,0,0,441.16,357.44Z" transform="translate(-276.74 -273.01)"/><path className="cls-12" d="M551.16,335.6q-7.68,2.2-15.06,4.86a24,24,0,0,0,6.65,5.09c2.14,1,3.94,1.31,5.47.82,3.14-1,4.67-3.62,4.58-8q2.61,4.55,5,9.15c.75,8.58-1.45,13.58-6.51,15.27-4.33,1.45-9.07.21-14.93-3.56s-12-9.56-18.91-17.36A56.47,56.47,0,0,1,508.63,329c-2-4.35-2.71-7.87-1.87-10.58s2.93-4.76,6.23-6.07a15.9,15.9,0,0,1,7.39-.79,29.44,29.44,0,0,1,9.38,2.71,37.8,37.8,0,0,1,9.78,6.67,52.52,52.52,0,0,1,6.86,7.44C547.86,330.35,549.46,332.77,551.16,335.6Zm-22.33-3.4c2.37-.89,4.75-1.74,7.16-2.55a22.36,22.36,0,0,0-5.42-5.31c-1.79-1.14-3.21-1.52-4.22-1.15s-1.4,1.38-1,3a15.6,15.6,0,0,0,3.08,5.51C528.56,331.85,528.7,332,528.83,332.2Z" transform="translate(-276.74 -273.01)"/><path className="cls-12" d="M606.38,351c-5.19.4-10.33,1-15.39,1.68a260.2,260.2,0,0,0-15.32-41.53q-4.83.79-9.59,1.75A257.94,257.94,0,0,0,549.69,286a314.28,314.28,0,0,1,44.87-6.7,254.08,254.08,0,0,1,10.57,28.59q-5,.3-10,.76A262.8,262.8,0,0,1,606.38,351Z" transform="translate(-276.74 -273.01)"/><path className="cls-12" d="M621.65,292.33c6.08,0,11.84,3,16.49,8.71s7.12,13.07,7.47,21.85-1.42,15.77-4.46,20.8-7,7.46-11.83,7.39c-4.47-.07-8.19-2.8-11.85-8.27s-6.57-12.64-8.79-21.63c-2-8.26-2.36-15.12-.09-20.58S615.23,292.33,621.65,292.33Zm6.23,35.36a2.59,2.59,0,0,0,2.41-1.72,7.82,7.82,0,0,0,.55-4.49,10.82,10.82,0,0,0-1.66-4.88,3.72,3.72,0,0,0-3-1.88,2.59,2.59,0,0,0-2.56,1.77,8.51,8.51,0,0,0-.28,4.72,11.17,11.17,0,0,0,1.75,4.57A3.63,3.63,0,0,0,627.88,327.69Z" transform="translate(-276.74 -273.01)"/><path className="cls-12" d="M675.12,355.15c5.55-23.32,8.74-46.8,8.51-70.74q12,2.26,23.91,5.38c8.28,2.17,13.75,4.13,16.43,5.47a16.91,16.91,0,0,1,6.47,5.58,18,18,0,0,1,2.9,8.47,22.28,22.28,0,0,1-1.19,9.65c-2.32,6.67-6,11-10.56,13.26,1.82,9.77-.32,21.1-6.22,34.07q-8.36-3-16.8-5.46l.24-.62c3.12-7.89,4.62-14.12,4.63-18.69s-1.39-7.23-4-7.91l-.25-.06c-2.26,8.47-4.88,16.9-7.8,25.32Q683.3,356.74,675.12,355.15ZM706,304.31l-.39-.1q-1.1,6.72-2.51,13.39l.54.14q3,.81,4.75-.42c1.16-.83,2-2.42,2.57-4.8C711.91,308.23,710.21,305.44,706,304.31Z" transform="translate(-276.74 -273.01)"/><path className="cls-12" d="M763,360.34q-8.26-4.32-16.74-8.12a12.77,12.77,0,0,0-.68,7.12,5.88,5.88,0,0,0,3.26,4.2c3.5,1.68,7.54,1.41,12.29-.74q-3,4-6.19,8c-8.74,4.86-15.75,6.11-21.52,3.55-4.94-2.19-7.33-6.14-7.7-12.21s1.36-13.42,5.27-22a38.53,38.53,0,0,1,8.58-12.31c3.64-3.42,7.32-5.44,11.11-6a19.87,19.87,0,0,1,11.47,1.74,16.37,16.37,0,0,1,6.07,4.8,17.55,17.55,0,0,1,3.46,7.65,20,20,0,0,1-.68,9.64,34.09,34.09,0,0,1-3.42,8.07C766.34,355.6,764.82,357.82,763,360.34Zm-12.74-17.1c2.72,1.22,5.44,2.48,8.14,3.78a13.15,13.15,0,0,0,2.12-6.16c0-1.74-.56-2.9-1.71-3.44a4.23,4.23,0,0,0-4.16.64,12.81,12.81,0,0,0-4.1,4.65C750.42,342.89,750.31,343.07,750.22,343.24Z" transform="translate(-276.74 -273.01)"/><path className="cls-12" d="M759.62,386.79c9.65-16.59,17.21-33.85,21.86-52.22q9.43,5.06,18.6,10.67-2.39,6.75-5.3,13.29,6.79-4.11,13.64-8,8.79,5.73,17.25,12a609.34,609.34,0,0,0-56.34,30.15Q764.53,389.62,759.62,386.79Z" transform="translate(-276.74 -273.01)"/><path className="cls-12" d="M783.1,401.87c16-12.44,31.48-24.59,45.87-36.93a15.82,15.82,0,0,0,5.94,8.56,23.22,23.22,0,0,0,11,5c-15.87,10.93-32.69,21.77-50,33Q789.62,406.53,783.1,401.87Zm71-37.18a4.58,4.58,0,0,1,1.74,4.47,7.08,7.08,0,0,1-3.23,4.62,12.58,12.58,0,0,1-6.35,2.28,7.37,7.37,0,0,1-5.41-1.41,4,4,0,0,1-1.3-4.17,8.47,8.47,0,0,1,3.25-4.85,10.66,10.66,0,0,1,5.92-2.35A7.14,7.14,0,0,1,854.06,364.69Z" transform="translate(-276.74 -273.01)"/><path className="cls-12" d="M849.69,427q-6.26-6.86-13-13.36c-2.41,1.85-3.88,3.7-4.41,5.53a4.52,4.52,0,0,0,1.18,4.75c2.73,2.78,7,4.15,13,4.32q-5.21,2-10.43,4.09c-11.41.61-19.16-1-23.79-5.37-3.95-3.75-4.44-8.05-1.72-13.29s8.3-10.65,16.93-16A47.45,47.45,0,0,1,843,391.47a31.67,31.67,0,0,1,14.8.07,24.33,24.33,0,0,1,10.87,6.31,13.29,13.29,0,0,1,3.61,6.3,11.86,11.86,0,0,1-.65,7.33,17.68,17.68,0,0,1-5.92,7.16,42.6,42.6,0,0,1-7.83,4.91Q854.53,425.1,849.69,427Zm-4.09-18.93q3.23,3.15,6.36,6.37c2.69-1.29,4.52-2.6,5.49-4s1-2.5.11-3.4-2.5-1.39-4.63-1.27a17.47,17.47,0,0,0-6.74,2Z" transform="translate(-276.74 -273.01)"/><path className="cls-12" d="M832.65,447.29c18.05-10.32,34.94-20.87,50-32.47q7.22,8.22,13.87,16.81c-3.45,2.22-7,4.4-10.59,6.53q7.63-.3,15.28-.34,2.94,4,5.75,8-5.6,2.83-11.39,5.56,7.93.36,15.89,1,6,9,11.35,18.28a395.81,395.81,0,0,0-75-3.79q-2.51-3.56-5.12-7,7.89-3.72,15.53-7.49-10,.63-20,1.76Q835.52,450.67,832.65,447.29Z" transform="translate(-276.74 -273.01)"/><path className="cls-3" d="M400.55,485.88q14.76.3,28.95,2c-.68,2.74-1.3,5.49-1.84,8.25A176.57,176.57,0,0,0,353.79,529q-.63-8.31-.65-16.67a191.22,191.22,0,0,1,24.86-13q-12.24,1.43-24.69,3.94.22-5.85.77-11.69a194.33,194.33,0,0,1,26.5-11.23q-12.57.43-25.45,2,1.11-8.23,2.87-16.41a296.21,296.21,0,0,1,76.26,6.23q-1.44,4-2.66,8.12A176.29,176.29,0,0,0,400.55,485.88Z" transform="translate(-276.74 -273.01)"/><path className="cls-3" d="M420.38,439.7q-2.91,5.79-5.37,11.69a30.26,30.26,0,0,0,8.27-1.21c2.17-.71,3.53-1.62,4.1-2.8,1.16-2.41,0-4.78-3.68-7.12,3.59.64,7.13,1.34,10.62,2.13,7.45,4.39,10,8.54,8.06,12.42-1.64,3.34-5.65,5.38-12.31,6.76s-15.09,1.93-25.57,2a77,77,0,0,1-15.87-1.29c-4.79-1-8.09-2.33-9.82-4.25a6.76,6.76,0,0,1-1.3-7,11.7,11.7,0,0,1,3.79-5.08,27.67,27.67,0,0,1,8-4.49,43,43,0,0,1,11.62-2.57,64.07,64.07,0,0,1,10.47-.22C414,438.83,417,439.17,420.38,439.7Zm-16.62,11.68q1.11-2.88,2.32-5.74a27.44,27.44,0,0,0-7.75.52c-2.05.51-3.24,1.2-3.55,2s.3,1.58,1.86,2.17a21.09,21.09,0,0,0,6.44,1Z" transform="translate(-276.74 -273.01)"/><path className="cls-3" d="M374.62,417.65a245.77,245.77,0,0,1,79.55,15.53q-3.18,4.62-6,9.37a241.59,241.59,0,0,0-80.06-10Q371.05,425,374.62,417.65Z" transform="translate(-276.74 -273.01)"/><path className="cls-3" d="M443.6,401.69A246.65,246.65,0,0,1,468,413.2a9.65,9.65,0,0,1-2.51,6.61c-2.83,3.31-7.41,4.69-14.25,4.67S436,423,425.67,420.41C418,418.49,411.41,416,406,412.33s-6.54-8.13-2.95-13.46c1.71-2.53,5-5.1,9.87-7.43a256.83,256.83,0,0,1,27.12,8.84c-4.71,1-7.8,2.45-9.17,4.24a2.52,2.52,0,0,0-.36,2.9,5.21,5.21,0,0,0,3.15,2.17c3.88,1.27,6.65.79,8.49-1.53S444.41,403.79,443.6,401.69Z" transform="translate(-276.74 -273.01)"/><path className="cls-3" d="M423.31,373.35c3.3-3.58,9.27-5.37,17.32-4.8s16.41,3.42,24.76,8.5S479,387.48,481.74,392.3s2.51,8.51-.39,11.13c-2.67,2.42-7.19,2.76-14.07,1.49S452.42,401,443,397.13c-8.64-3.57-15.16-7.19-19-11.54S419.82,377.14,423.31,373.35ZM459.91,390c.6-.58.54-1.38-.2-2.4a10.78,10.78,0,0,0-3.79-3,17.41,17.41,0,0,0-5.44-1.92c-1.63-.23-2.78,0-3.43.64s-.6,1.52.21,2.5a12.33,12.33,0,0,0,4.18,2.91,18,18,0,0,0,5.15,1.69C458.23,390.7,459.33,390.56,459.91,390Z" transform="translate(-276.74 -273.01)"/><path className="cls-3" d="M440.32,358.59q6.15-5.47,12.8-10.58c2.37,1.34,4.71,2.71,7,4.1-2.79-4.56-2.61-8.05.65-10.35,3.9-2.75,10.16-2.69,18,.59-3-6.29-2.7-10.55.92-12.64a12.94,12.94,0,0,1,7.11-1.56,20.77,20.77,0,0,1,8.4,2.35,41.84,41.84,0,0,1,7.78,5.06,116,116,0,0,1,10.76,10.58,254,254,0,0,1,18.93,23.37q-5.6,2.46-10.94,5.21a254.78,254.78,0,0,0-19.13-20.67,75.19,75.19,0,0,0-9.83-8.41c-1.58-1-3-1.1-4.14-.42-.83.48-1.06,1.41-.69,2.77a253.71,253.71,0,0,1,29.71,28.89c-3.51,1.9-6.92,3.9-10.24,6a249.34,249.34,0,0,0-21.17-18.91,76.81,76.81,0,0,0-10.67-7.5c-1.69-.83-3.09-.86-4.14-.1-.64.45-.77,1.38-.37,2.78a251.17,251.17,0,0,1,32.55,26.16c-3.45,2.26-6.79,4.62-10,7.05A254.83,254.83,0,0,0,440.32,358.59Z" transform="translate(-276.74 -273.01)"/><path className="cls-3" d="M549.94,336.26q-7.65,2.24-15,4.93a24.43,24.43,0,0,0,6.67,5.06c2.14,1,3.94,1.28,5.47.79,3.12-1,4.63-3.65,4.5-8q2.64,4.53,5.08,9.12c.81,8.57-1.34,13.59-6.37,15.3-4.31,1.46-9,.24-14.92-3.5s-12.1-9.49-19-17.26a56.09,56.09,0,0,1-8.94-12.89c-2.07-4.34-2.77-7.85-1.95-10.57s2.88-4.77,6.17-6.09a15.85,15.85,0,0,1,7.36-.83A29.52,29.52,0,0,1,528.4,315a38,38,0,0,1,9.82,6.63,53,53,0,0,1,6.91,7.4Q547.34,332,549.94,336.26ZM527.63,333c2.35-.89,4.73-1.75,7.12-2.58a22.24,22.24,0,0,0-5.45-5.28c-1.79-1.13-3.22-1.51-4.22-1.13s-1.39,1.39-1,3a15.5,15.5,0,0,0,3.12,5.49Z" transform="translate(-276.74 -273.01)"/><path className="cls-3" d="M605.12,351.4q-7.75.64-15.34,1.77a260.21,260.21,0,0,0-15.6-41.46c-3.21.55-6.39,1.14-9.55,1.79a260.62,260.62,0,0,0-16.58-26.81,313,313,0,0,1,44.7-6.94,254.28,254.28,0,0,1,10.78,28.54q-5,.33-9.95.82A263.35,263.35,0,0,1,605.12,351.4Z" transform="translate(-276.74 -273.01)"/><path className="cls-3" d="M619.88,292.62c6.06,0,11.83,2.89,16.52,8.61s7.2,13,7.62,21.82-1.3,15.79-4.29,20.84-6.89,7.5-11.74,7.45c-4.46,0-8.18-2.75-11.88-8.2s-6.64-12.62-8.92-21.59c-2.11-8.25-2.48-15.12-.26-20.59S613.48,292.65,619.88,292.62Zm6.5,35.34a2.6,2.6,0,0,0,2.39-1.74,7.84,7.84,0,0,0,.51-4.49,10.83,10.83,0,0,0-1.69-4.88,3.69,3.69,0,0,0-3-1.86,2.59,2.59,0,0,0-2.55,1.79,8.51,8.51,0,0,0-.24,4.71,11.15,11.15,0,0,0,1.79,4.57A3.6,3.6,0,0,0,626.38,328Z" transform="translate(-276.74 -273.01)"/><path className="cls-3" d="M673.67,355.16c5.38-23.36,8.38-46.88,7.94-70.84q12,2.19,23.89,5.22c8.27,2.12,13.75,4,16.43,5.37a16.89,16.89,0,0,1,6.49,5.55,18,18,0,0,1,3,8.45,22.61,22.61,0,0,1-1.11,9.67c-2.26,6.7-5.92,11.07-10.44,13.34,1.89,9.77-.16,21.13-6,34.13q-8.34-3-16.79-5.35c.09-.21.16-.42.24-.62,3.06-7.92,4.51-14.16,4.49-18.73s-1.44-7.22-4-7.89l-.24-.06c-2.2,8.49-4.76,17-7.6,25.38Q681.83,356.71,673.67,355.16Zm30.39-51.06-.39-.1q-1,6.74-2.39,13.41l.54.14q3,.79,4.73-.45c1.15-.84,2-2.44,2.52-4.82C710,308,708.29,305.19,704.06,304.1Z" transform="translate(-276.74 -273.01)"/><path className="cls-3" d="M761.3,359.79q-8.28-4.26-16.75-8a12.93,12.93,0,0,0-.63,7.13,5.87,5.87,0,0,0,3.28,4.18c3.5,1.66,7.53,1.37,12.25-.82q-3,4-6.11,8c-8.69,4.93-15.67,6.22-21.45,3.69-4.93-2.15-7.35-6.09-7.76-12.16s1.27-13.43,5.1-22.07a38.61,38.61,0,0,1,8.47-12.37c3.6-3.45,7.26-5.5,11-6.12a19.77,19.77,0,0,1,11.45,1.66,16.35,16.35,0,0,1,6.09,4.77,17.6,17.6,0,0,1,3.51,7.63,20.07,20.07,0,0,1-.6,9.66,34.17,34.17,0,0,1-3.36,8.1C764.64,355,763.14,357.26,761.3,359.79Zm-12.83-17c2.73,1.2,5.44,2.45,8.14,3.73a13,13,0,0,0,2.07-6.18c0-1.75-.57-2.9-1.73-3.43s-2.59-.34-4.13.66a12.79,12.79,0,0,0-4.06,4.69C748.67,342.42,748.57,342.59,748.47,342.77Z" transform="translate(-276.74 -273.01)"/><path className="cls-3" d="M758.15,386.28c9.52-16.66,16.94-34,21.43-52.4q9.45,5,18.63,10.54-2.33,6.78-5.19,13.34,6.75-4.15,13.55-8.12,8.8,5.67,17.28,11.85a618,618,0,0,0-56,30.56Q763.06,389.07,758.15,386.28Z" transform="translate(-276.74 -273.01)"/><path className="cls-3" d="M781.66,401.2c15.94-12.54,31.25-24.81,45.5-37.27.8,3.18,2.77,6,6,8.52a23.11,23.11,0,0,0,11,5c-15.75,11.06-32.45,22-49.68,33.38Q788.21,405.82,781.66,401.2Zm70.53-37.71a4.58,4.58,0,0,1,1.76,4.45,7.07,7.07,0,0,1-3.19,4.65,12.41,12.41,0,0,1-6.31,2.34,7.3,7.3,0,0,1-5.4-1.37,4,4,0,0,1-1.33-4.17,8.39,8.39,0,0,1,3.2-4.87,10.61,10.61,0,0,1,5.89-2.41A7.12,7.12,0,0,1,852.19,363.49Z" transform="translate(-276.74 -273.01)"/><path className="cls-3" d="M848.27,425.89q-6.3-6.81-13-13.28-3.59,2.82-4.36,5.57a4.5,4.5,0,0,0,1.21,4.74c2.74,2.76,7,4.11,13,4.23l-10.38,4.17c-11.38.68-19.13-.84-23.77-5.21-4-3.72-4.48-8-1.81-13.28s8.21-10.71,16.79-16.11a47.18,47.18,0,0,1,15.45-6.34,31.5,31.5,0,0,1,14.76,0A24.12,24.12,0,0,1,867,396.57a13.45,13.45,0,0,1,3.64,6.28,11.86,11.86,0,0,1-.59,7.34,17.74,17.74,0,0,1-5.86,7.21,41.71,41.71,0,0,1-7.77,5Q853.07,423.95,848.27,425.89ZM844.06,407q3.24,3.13,6.39,6.33c2.67-1.31,4.49-2.63,5.45-4s1-2.51.08-3.41-2.5-1.37-4.63-1.23a17.47,17.47,0,0,0-6.71,2Z" transform="translate(-276.74 -273.01)"/><path className="cls-3" d="M831.39,446.29c18-10.44,34.73-21.11,49.7-32.84q7.26,8.18,14,16.72-5.14,3.38-10.52,6.62c5.07-.24,10.16-.4,15.24-.46q3,3.94,5.79,7.95-5.55,2.88-11.32,5.65,7.92.3,15.86.93,6,9,11.45,18.2a396.42,396.42,0,0,0-74.87-3.26q-2.52-3.54-5.16-7,7.86-3.78,15.46-7.6-10,.71-19.93,1.89Q834.29,449.65,831.39,446.29Z" transform="translate(-276.74 -273.01)"/><path className="cls-2" d="M376,659.13l-.13.17a3.51,3.51,0,0,1-2.93,1.23l-1.93-.13a48,48,0,0,1-5.32-.51,25.24,25.24,0,0,1-4-.95q-2.1,1.47-4.51,2.9a9.6,9.6,0,0,1-.65,1.37,9,9,0,0,1-.75,1.15,16.42,16.42,0,0,1-2,2.2,29.2,29.2,0,0,1-4.75,3.83,3.49,3.49,0,0,1-5.23-2.1l0-.14a47.37,47.37,0,0,1-5.37,1.47,16.35,16.35,0,0,1-3.07,8.09,15.68,15.68,0,0,1-1.29,1.52,3.65,3.65,0,0,1-1.1.81,3.51,3.51,0,0,1-3.1-.08,3.38,3.38,0,0,1-.24,1.07,3.55,3.55,0,0,1-.43.76,3.46,3.46,0,0,1-2,1.31,20.77,20.77,0,0,1-8,.16c-8.38-1.24-15.52-5.47-20.81-9a3.48,3.48,0,0,1-1.45-2.07,3.52,3.52,0,0,1-2.45-.64l-1.49-1.08c-4.94-3.61-10.1-7.52-14.46-12.43a3.61,3.61,0,0,1-.07-6.27c1.94-2.31,3.82-4.76,5.65-7.14q1.4-1.82,2.8-3.62a3.5,3.5,0,0,1,1.58-1.13,60,60,0,0,1-4.63-14.63A40.81,40.81,0,0,1,285,605.39a3.43,3.43,0,0,1-1.22-1.54c-2.42-6-3.24-13.17-2.44-21.45.13-1.3.29-2.68.5-4.09.08-.58.6-3.79.75-4.65.27-1.5.56-3,.84-4.5.56-3,1.14-6,1.57-9a3.57,3.57,0,0,1,.63-2.83,1.71,1.71,0,0,1,.11-.14,3.64,3.64,0,0,1,4-1.13c6.55,0,12.89,1.28,18.84,2.59l1.8.4a3.51,3.51,0,0,1,2.11,1.41,3.5,3.5,0,0,1,2.51-.29l2.28.63a62.22,62.22,0,0,1,12.15-6.65,10.39,10.39,0,0,1,8.44-7.89l1.16-.19a10.51,10.51,0,0,1,10.07,4,51.12,51.12,0,0,1,10.72,1,10.51,10.51,0,0,1,8.89,0l1.07.5A10.49,10.49,0,0,1,375,557l.28.18a41.51,41.51,0,0,1,8,6.41,3.5,3.5,0,0,1,4.21,0,41.85,41.85,0,0,1,4.71,5.16h0a34.29,34.29,0,0,1,4.74,36c-1.27,2.54-2.2,5.35-4.05,7.47a10.45,10.45,0,0,1-2.53,3.44c-.92,1.11-1.94,2.58-3.56,2.66a3.5,3.5,0,0,1-2.69-.9l-1.13-1a76.31,76.31,0,0,0-2.38,10.6c-.9,5.13-1.84,10.44-4.09,15.37a33.87,33.87,0,0,1-3.61,6.09c-.15.22-.31.43-.48.64a15.86,15.86,0,0,1,4.24,7.19A3.47,3.47,0,0,1,376,659.13Z" transform="translate(-276.74 -273.01)"/><path className="cls-3" d="M292.16,638.64a54.66,54.66,0,0,0,14.29,18.93,38.83,38.83,0,0,0,21.7,9.1c9.24.62,18.07-2.76,25.88-7.18,8.06-4.56,15.64-10.58,19.46-19,4.6-10.08,3.33-22.56,9.23-31.91,2-3.13,4.66-5.76,6.36-9a21.79,21.79,0,0,0,2.21-9.21c.41-12-7.05-24-17.65-30.56s-23.84-8-35.54-5.07-21.88,9.83-29.84,18.51c-7.36,8-12.61,17.4-17.41,27.12a37.18,37.18,0,0,0-3.29,24A56.77,56.77,0,0,0,292.16,638.64Z" transform="translate(-276.74 -273.01)"/><path className="cls-10" d="M300,614c5,.49,9.62-2.48,13.41-5.73a29.91,29.91,0,0,0,5.64-6,17.83,17.83,0,0,0,3.12-6.78,17.71,17.71,0,0,0,12.65-4,12.76,12.76,0,0,0,4.26-8.54,4.29,4.29,0,0,1-.88-.06,5,5,0,0,1-1.91-.89,3,3,0,0,1-1.48-2.27,2.68,2.68,0,0,1,2-2.24,5.52,5.52,0,0,1,1-.24,17.69,17.69,0,0,0-4.32-5.05c-5.46-4.59-12.23-7.09-19.19-8.91a12,12,0,0,1-2.9,4.37,3.5,3.5,0,0,1-1.39.66,1.64,1.64,0,0,1-1.44-.43,2.12,2.12,0,0,1-.26-2,17.91,17.91,0,0,1,1.5-3.71l-1.79-.4c-6.33-1.4-12.74-2.65-19.21-2.5h0c-.65,4.92-1.71,9.82-2.59,14.73,1.36.06,2.77.29,3.74.35a18,18,0,0,1,4.21.56c1,.28,2,1,1.86,2s-1.18,1.26-2.06,1.42a30.11,30.11,0,0,1-8.48.23c-.19,1.31-.36,2.62-.48,3.93-.64,6.66-.31,13.63,2.2,19.8a10.67,10.67,0,0,1,1.1-1.06,4.09,4.09,0,0,1,2.13-1,2,2,0,0,1,2,1,2.49,2.49,0,0,1,.18,1.35,5.76,5.76,0,0,1-3,4.4C292.1,610.6,295.72,613.56,300,614Z" transform="translate(-276.74 -273.01)"/><path className="cls-4" d="M322.06,595.84l0,0a.17.17,0,0,1-.21,0,165.14,165.14,0,0,0-33.17-36.53.14.14,0,0,1,.18-.22,165.77,165.77,0,0,1,33.24,36.59A.13.13,0,0,1,322.06,595.84Z" transform="translate(-276.74 -273.01)"/><path className="cls-4" d="M325.88,578.51a3.05,3.05,0,0,1-1.18.88,13.68,13.68,0,0,1-5.32,1.36c-1.18.06-3.95.2-5.11-.92a1.82,1.82,0,0,1-.7-2c.68-2,5.59-3.15,6.78-3.26a8,8,0,0,1,3.82.39,3.47,3.47,0,0,1,1.68,1.26,2,2,0,0,1,.13,2.09A.78.78,0,0,1,325.88,578.51Zm-11.8-1a1.63,1.63,0,0,0-.23.43c-.19.53,0,1.08.62,1.65,1.07,1,3.75.9,4.9.84a13.42,13.42,0,0,0,5.2-1.33,2.6,2.6,0,0,0,1.16-.92,1.72,1.72,0,0,0-.12-1.78,3.28,3.28,0,0,0-1.55-1.16,7.85,7.85,0,0,0-3.68-.36C319.13,575,315.19,576,314.08,577.54Z" transform="translate(-276.74 -273.01)"/><path className="cls-4" d="M312.69,601.67a8,8,0,0,1-3.71,2.78,5.71,5.71,0,0,1-4.07,0,5.94,5.94,0,0,1-3.18-3.68c-.9-2.61-.75-4.64.5-6.57a8.17,8.17,0,0,1,6.1-3.78h0a5.07,5.07,0,0,1,3.09.61,5.12,5.12,0,0,1,1.6,1.69,7.92,7.92,0,0,1-.33,8.9ZM302.77,594l-.3.43c-1.21,1.87-1.35,3.76-.46,6.32a5.63,5.63,0,0,0,3,3.5,5.39,5.39,0,0,0,3.87-.06,7.68,7.68,0,0,0,4.64-4.68,7.8,7.8,0,0,0-.74-6.57,4.25,4.25,0,0,0-4.43-2.16h0A7.82,7.82,0,0,0,302.77,594Z" transform="translate(-276.74 -273.01)"/><path className="cls-10" d="M330.38,628.93a.14.14,0,0,1-.14.06.15.15,0,0,1-.12-.17,39.65,39.65,0,0,0-1.62-18.59,74.57,74.57,0,0,0-8.33-16.88.15.15,0,0,1,.05-.2.14.14,0,0,1,.2,0,75.61,75.61,0,0,1,8.36,16.95,40,40,0,0,1,1.63,18.73A.09.09,0,0,1,330.38,628.93Z" transform="translate(-276.74 -273.01)"/><path className="cls-2" d="M330.57,583.05a34.42,34.42,0,0,0-20,8.25l-11.88,24.86a34.61,34.61,0,0,0,11.06,26.52L335.3,652a34.39,34.39,0,0,0,23-10.47l9.53-26a34.66,34.66,0,0,0-9.94-22.16Zm19.63,36.36c-.31,2.87,5.75,5.24,3.91,7.73-.73,1-8.65,2.35-9.54,3.12a17,17,0,0,1-13.12,4.11c-2.88-.33-4.18,6.68-6.69,4.83-.8-.59-3.08-9.31-3.75-10a17,17,0,0,1-4.69-13c.21-3.09-4.16-5.87-2.19-8.54.58-.79,6.66-1.79,7.34-2.44a16.86,16.86,0,0,1,10.11-4.63c4-.38,4.92-8.18,8.45-5.58.4.29,4.1,9.45,4.46,9.77A17.07,17.07,0,0,1,350.2,619.41Z" transform="translate(-276.74 -273.01)"/><path className="cls-13" d="M310.6,591.3c2.27,3,4.54,6,6.85,8.89q2,2.52,4,5a16.49,16.49,0,0,0-1.9,2.16,16.72,16.72,0,0,0-3.25,8.82c-2.13-.05-4.27-.09-6.4-.1-3.73,0-7.47,0-11.2.07A34.29,34.29,0,0,1,310.6,591.3Z" transform="translate(-276.74 -273.01)"/><path className="cls-13" d="M353.74,589.76a34.54,34.54,0,0,1,4.12,3.56c-2.86,2.41-5.72,4.81-8.54,7.24q-2.43,2.09-4.83,4.21c-.36-.32-.75-.63-1.14-.92a17,17,0,0,0-11.77-3.27c-.07-2.13-.17-4.25-.27-6.38-.2-3.72-.44-7.43-.74-11.15A34.64,34.64,0,0,1,353.74,589.76Z" transform="translate(-276.74 -273.01)"/><path className="cls-13" d="M367.8,615.48a34.38,34.38,0,0,1-9.53,26c-2.87-2.43-5.73-4.83-8.64-7.2q-2.5-2-5.06-4a16.69,16.69,0,0,0,2.44-2.65,16.89,16.89,0,0,0,3.19-8.2c2.17-.43,4.32-.89,6.48-1.35Q362.26,616.85,367.8,615.48Z" transform="translate(-276.74 -273.01)"/><path className="cls-13" d="M331.45,634.37q.63,3.24,1.32,6.47Q334,646.42,335.3,652a34.63,34.63,0,0,1-22.47-6.76,32.49,32.49,0,0,1-3.05-2.53c2.43-2.82,4.84-5.65,7.21-8.52,1.35-1.64,2.7-3.3,4-5a18,18,0,0,0,2.21,2A17.11,17.11,0,0,0,331.45,634.37Z" transform="translate(-276.74 -273.01)"/><path className="cls-14" d="M331.31,594.2a23.22,23.22,0,0,0-13.86,6,23.38,23.38,0,0,0-7.53,15.9A23.4,23.4,0,0,0,317,634.16a23.41,23.41,0,0,0,15.78,6.68,23.26,23.26,0,0,0,16.86-6.54,22.6,22.6,0,0,0,2.52-2.89,23.08,23.08,0,0,0,4.53-13.35,23.42,23.42,0,0,0-7.36-17.5,23.15,23.15,0,0,0-2.19-1.84A23.44,23.44,0,0,0,331.31,594.2Zm18.89,25.21a16.89,16.89,0,0,1-3.19,8.2,16.26,16.26,0,0,1-2.44,2.65,17,17,0,0,1-21.35.87,17.22,17.22,0,0,1-2.21-2,17,17,0,0,1-4.69-13,16.72,16.72,0,0,1,3.25-8.82,16.49,16.49,0,0,1,1.9-2.16,16.86,16.86,0,0,1,10.11-4.63,17,17,0,0,1,11.77,3.27c.39.29.78.6,1.14.92A17.07,17.07,0,0,1,350.2,619.41Z" transform="translate(-276.74 -273.01)"/><path className="cls-15" d="M393.26,576.13c-.17,2.32.61,24.79-1.17,26.85-3.39,3.89-8.16,9.09-8.16,9.09l-25.61-23.18-.12-.1,25.21-21Z" transform="translate(-276.74 -273.01)"/><path className="cls-16" d="M385.59,566A46.71,46.71,0,0,1,389,569.7c.23.27.45.56.67.84l0,0,.65.85.09.12a35.9,35.9,0,0,1,2.81,4.49l.07.11c.1.21.21.41.31.62l.26.53c.18.38.35.76.51,1.15l.05.1.23.56c.09.2.16.4.24.61l.12.33,0,.12s0,0,0,.05c.08.21.14.42.21.63s.13.38.19.57.13.42.18.63.2.71.28,1.06c0,.12.06.25.09.37l0,.13q.11.43.18.87c0,.18.07.37.11.56s0,.09,0,.13,0,.05,0,.08c.11.68.19,1.36.25,2a.71.71,0,0,1,0,.14s0,.06,0,.08a.17.17,0,0,0,0,.07c0,.25.05.5.06.74s0,.53,0,.8a1.62,1.62,0,0,1,0,.22v.13q0,.57,0,1.14c0,.22,0,.43,0,.64s0,.56-.06.83h0a1.23,1.23,0,0,1-.09.24l.18.13,0,.32s0,.08,0,.12c-.07.55-.15,1.1-.24,1.64l0,.16a0,0,0,0,1,0,0l-.12.67-.09.44c0,.17-.08.34-.11.5l0,.13c-.05.22-.11.44-.17.66l0,.14,0,.09c-.06.26-.14.52-.21.77a.43.43,0,0,1,0,0,.24.24,0,0,0,0,.08c-.08.26-.15.52-.24.77h0s0,.1-.05.14h0c-.05.18-.11.35-.17.52s-.14.42-.21.62a.85.85,0,0,1-.06.17.56.56,0,0,0,0,.12l-.12.32-.15.38-.27.69a.54.54,0,0,1,0,.11h0l-.42,1c-.2.42-.39.85-.59,1.26s-.52,1-.77,1.54l-.56,1c-.13.23-.26.46-.39.67a.75.75,0,0,1-.07.12l.06-.08a.43.43,0,0,1,0,.19h0c-.1.18-.2.35-.31.52a2.7,2.7,0,0,1-.64.59v0l.15.26v0s-.26.35-.38.53l-.35.52-.07.11a4.41,4.41,0,0,0-.37.89l-.09.12s-.55.4-.56.76l-.14.19c-.21-.08-.23-.05-.26,0s-.11.14-.17.22a4.4,4.4,0,0,1-.33.35v0a.26.26,0,0,1,0,.1l-.28.34-.25.3-.22.26-.26.3-.09.1-.09.1-.06.07,0,0-.91-.83L385,613l-1-.89.12-.16a.15.15,0,0,1,0-.14c.25-.33.48-.66.71-1a.61.61,0,0,1,.07-.1c.11-.17.23-.35.33-.52a.76.76,0,0,0,.08-.11q.21-.32.39-.63l.07-.11a4.25,4.25,0,0,0,.27-.46.34.34,0,0,0,.07-.11l.06-.11a1,1,0,0,0,.08-.14l.39-.67.06-.13c.13-.24.26-.48.38-.72a.83.83,0,0,0,.07-.13c.18-.36.36-.72.52-1.08l.08-.15a37.36,37.36,0,0,0,1.64-4.23s0-.08,0-.12c.28-.87.52-1.76.73-2.65a.4.4,0,0,0,0-.15c.06-.24.12-.48.17-.72a.5.5,0,0,1,0-.12c.08-.38.15-.78.22-1.16a.68.68,0,0,0,0-.14c.12-.67.21-1.36.29-2.05a.59.59,0,0,0,0-.14h0s0-.09,0-.14c.09-.89.15-1.78.17-2.68,0,0,0-.08,0-.12,0-.43,0-.85,0-1.29,0-1-.06-2-.16-3,0,0,0-.08,0-.13-.06-.57-.13-1.14-.22-1.72V585c-.13-.84-.29-1.67-.47-2.49l0-.13c-.1-.43-.2-.87-.32-1.31l0-.11a36.6,36.6,0,0,0-1.35-4.07l-.06-.15c-.41-1-.88-2.06-1.4-3.07a1,1,0,0,0-.07-.15c-.32-.6-.64-1.19-1-1.78-.14-.25-.29-.51-.45-.76l-.08-.12a34,34,0,0,0-2.08-3Z" transform="translate(-276.74 -273.01)"/><path className="cls-17" d="M388.51,612.2l.14.1-.09.12-.14-.11c-.72-.54-1.5-1-2.26-1.52l-.93-.6a.76.76,0,0,0,.08-.11l.93.59C387,611.16,387.79,611.65,388.51,612.2Z" transform="translate(-276.74 -273.01)"/><path className="cls-17" d="M387.52,609.76a12.49,12.49,0,0,0,1.78,1.37,1.48,1.48,0,0,1,.13.08l-.08.12-.14-.09a13.14,13.14,0,0,1-1.79-1.37c-.43-.38-.85-.8-1.25-1.21a1,1,0,0,0,.08-.14C386.66,609,387.08,609.38,387.52,609.76Z" transform="translate(-276.74 -273.01)"/><path className="cls-17" d="M390.85,609.07a.57.57,0,0,1-.08.13.7.7,0,0,0-.14,0l-.73-.19c-.66-.17-1.35-.34-2-.56a9.78,9.78,0,0,1-1.28-.57.54.54,0,0,1,.07-.13,7.92,7.92,0,0,0,1.26.56c.63.22,1.31.4,2,.56l.78.2Z" transform="translate(-276.74 -273.01)"/><path className="cls-17" d="M391.66,607.58l-.09.15h-.17a4.43,4.43,0,0,1-2-.41,4.83,4.83,0,0,1-1.75-1.58l.08-.15a4.63,4.63,0,0,0,1.73,1.59,4.34,4.34,0,0,0,2.07.41h.18Z" transform="translate(-276.74 -273.01)"/><path className="cls-17" d="M395.34,599h0a.57.57,0,0,1,0,.14h0A1.78,1.78,0,0,0,395,599a19.39,19.39,0,0,0-3.8-.27l-1,0a.57.57,0,0,0,0-.14h1a19.66,19.66,0,0,1,3.82.28Z" transform="translate(-276.74 -273.01)"/><path className="cls-17" d="M395.88,596.93a.32.32,0,0,1,0,.14c-.73-.33-1.43-.74-2.12-1.13l-2.82-1.64,0,0a1,1,0,0,1,0-.15l0,0,2.87,1.66C394.48,596.21,395.17,596.6,395.88,596.93Z" transform="translate(-276.74 -273.01)"/><path className="cls-17" d="M396.38,594.3a.78.78,0,0,1,0,.16l-.7,0a12.35,12.35,0,0,1-4.56-1.68l0-.16a11.86,11.86,0,0,0,4.55,1.69A5.46,5.46,0,0,0,396.38,594.3Z" transform="translate(-276.74 -273.01)"/><path className="cls-17" d="M396.56,592.13h0a.76.76,0,0,1,0,.15h0A8.11,8.11,0,0,1,395,592a16.3,16.3,0,0,1-3.69-1.89c0-.05,0-.11,0-.16a16,16,0,0,0,3.7,1.91A8,8,0,0,0,396.56,592.13Z" transform="translate(-276.74 -273.01)"/><path className="cls-17" d="M396.61,587.39c0,.05,0,.1,0,.15h0a31.26,31.26,0,0,0-3.49-.71c-.53-.08-1.07-.14-1.61-.2v-.15c.54.06,1.09.12,1.63.21a33.11,33.11,0,0,1,3.46.7Z" transform="translate(-276.74 -273.01)"/><path className="cls-17" d="M396.3,585l0,.13h-.12a36.82,36.82,0,0,1-5.46-.06V585a35.49,35.49,0,0,0,5.46.07Z" transform="translate(-276.74 -273.01)"/><path className="cls-17" d="M395.33,583.39l.66.08,0,.12c-.27,0-.5-.05-.71-.08-.69-.12-1.37-.3-2-.47a16.34,16.34,0,0,0-2.5-.53l-.51,0,0-.13.55,0a17.63,17.63,0,0,1,2.52.54C394,583.09,394.65,583.27,395.33,583.39Z" transform="translate(-276.74 -273.01)"/><path className="cls-17" d="M395,580a.56.56,0,0,1,0,.12,26.23,26.23,0,0,0-4.2.67l-.39.09-.51.12,0-.11.51-.12.39-.1A26.11,26.11,0,0,1,395,580Z" transform="translate(-276.74 -273.01)"/><path className="cls-17" d="M394.34,578.43l.05.1a4.28,4.28,0,0,1-2.76-.34c-.35-.15-.69-.33-1-.5a8.75,8.75,0,0,0-2.06-.84l-.06-.15a8.91,8.91,0,0,1,2.17.88c.34.17.68.35,1,.49A4.2,4.2,0,0,0,394.34,578.43Z" transform="translate(-276.74 -273.01)"/><path className="cls-17" d="M393.2,576l.06.11a2.4,2.4,0,0,1-.59.13,5.21,5.21,0,0,1-3.39-1.37,10,10,0,0,0-1.87-1.13,2.52,2.52,0,0,0-.33-.13.39.39,0,0,0-.08-.14,2.51,2.51,0,0,1,.46.16,9.9,9.9,0,0,1,1.89,1.14c1.07.76,2.09,1.47,3.31,1.35A2.62,2.62,0,0,0,393.2,576Z" transform="translate(-276.74 -273.01)"/><path className="cls-17" d="M390.29,571.41l.09.13c-.21,0-.42,0-.62,0-.57-.06-1.15-.16-1.7-.27a13.13,13.13,0,0,0-2.49-.3l-.08-.12a12.47,12.47,0,0,1,2.59.3c.55.11,1.12.21,1.69.27A4.52,4.52,0,0,0,390.29,571.41Z" transform="translate(-276.74 -273.01)"/><path className="cls-18" d="M365.42,590.73h0a.6.6,0,0,1-.71-.43l-.36-1.46a.57.57,0,0,1,.43-.7h0a.57.57,0,0,1,.7.43l.36,1.45A.59.59,0,0,1,365.42,590.73Z" transform="translate(-276.74 -273.01)"/><path className="cls-18" d="M373.62,590.07h0a.59.59,0,0,1,.44.7l-.33,1.46a.59.59,0,0,1-.7.44h0a.59.59,0,0,1-.44-.7l.33-1.46A.59.59,0,0,1,373.62,590.07Z" transform="translate(-276.74 -273.01)"/><path className="cls-18" d="M380.57,588.21h0a.59.59,0,0,1-.49.67l-1.48.22a.6.6,0,0,1-.67-.5h0a.58.58,0,0,1,.49-.66l1.48-.22A.6.6,0,0,1,380.57,588.21Z" transform="translate(-276.74 -273.01)"/><path className="cls-18" d="M383.78,582.32h0a.6.6,0,0,1-.49.66l-1.49.22a.58.58,0,0,1-.66-.49h0a.57.57,0,0,1,.49-.66l1.48-.22A.59.59,0,0,1,383.78,582.32Z" transform="translate(-276.74 -273.01)"/><path className="cls-18" d="M372,585.61h0a.58.58,0,0,1-.49.66l-1.48.22a.59.59,0,0,1-.67-.49h0a.58.58,0,0,1,.49-.66l1.48-.22A.59.59,0,0,1,372,585.61Z" transform="translate(-276.74 -273.01)"/><path className="cls-18" d="M383.34,595.79h0a.58.58,0,0,1-.49.66l-1.48.22a.6.6,0,0,1-.67-.49h0a.6.6,0,0,1,.49-.67l1.49-.22A.6.6,0,0,1,383.34,595.79Z" transform="translate(-276.74 -273.01)"/><path className="cls-18" d="M382.16,573h0a.6.6,0,0,1,.4.73l-.42,1.44a.59.59,0,0,1-.73.39h0a.59.59,0,0,1-.4-.73l.42-1.43A.59.59,0,0,1,382.16,573Z" transform="translate(-276.74 -273.01)"/><path className="cls-18" d="M373.45,596.8h0a.58.58,0,0,1,.78.27l.67,1.34a.57.57,0,0,1-.26.78h0a.59.59,0,0,1-.78-.26l-.67-1.35A.57.57,0,0,1,373.45,596.8Z" transform="translate(-276.74 -273.01)"/><path className="cls-18" d="M375,578.29h0a.6.6,0,0,1,.79.26l.67,1.35a.58.58,0,0,1-.26.78h0a.6.6,0,0,1-.79-.27l-.67-1.34A.59.59,0,0,1,375,578.29Z" transform="translate(-276.74 -273.01)"/><path className="cls-18" d="M385.76,587.71h0a.6.6,0,0,1,.79.26l.67,1.35a.58.58,0,0,1-.26.78h0a.59.59,0,0,1-.78-.26l-.68-1.35A.59.59,0,0,1,385.76,587.71Z" transform="translate(-276.74 -273.01)"/><path className="cls-18" d="M382.4,602.27h0a.59.59,0,0,1,.78.26l.67,1.35a.57.57,0,0,1-.26.78h0a.59.59,0,0,1-.78-.27l-.67-1.34A.57.57,0,0,1,382.4,602.27Z" transform="translate(-276.74 -273.01)"/><path className="cls-14" d="M385.58,566A45,45,0,0,1,389,569.7l-2.92,2-3.59,2.39-1.44,1q-2.64,1.74-5.31,3.42l-1,.62q-8.07,5.08-16.38,9.8l-.12-.1,25.21-21Z" transform="translate(-276.74 -273.01)"/><path className="cls-16" d="M346.67,553.53l5.68,14.34a6.35,6.35,0,0,1,.45,1.84,6.77,6.77,0,0,1-.42,3.19,6.88,6.88,0,0,1-3.93,4l-1.1.43a7,7,0,0,1-8.11-2.3,6.52,6.52,0,0,1-.57-.87,8,8,0,0,1-.37-.78L332.62,559a6.9,6.9,0,0,1,3.9-9l1.1-.43a7,7,0,0,1,9.05,3.94Z" transform="translate(-276.74 -273.01)"/><path className="cls-19" d="M348,557l.23.57a9,9,0,0,1-2.14-.27,12.93,12.93,0,0,1-1.92-.67,12.4,12.4,0,0,1-1.65-.88c-.71-.44-1.4-.93-2.06-1.41l-.63-.46s-.1,0-.13,0a11.9,11.9,0,0,1-1.43-1.23c0,.63-.12,1.25-.22,1.88a22,22,0,0,1-.78,3.28,22.67,22.67,0,0,1-1.49,3.61,20.09,20.09,0,0,1-1.32,2.23l-.26-.66c.27-.41.51-.82.74-1.25a20.5,20.5,0,0,0,1.62-3.65,21.16,21.16,0,0,0,.85-3.31,20.09,20.09,0,0,0,.32-2.77.28.28,0,0,1,.18-.26.3.3,0,0,1,.31.06l.44.41c.5.48,1.32,1.43,1.32,1.43l.39,0,.42.3a27.79,27.79,0,0,0,2.4,1.6,11.35,11.35,0,0,0,1.2.63,10.38,10.38,0,0,0,2.68.79A6,6,0,0,0,348,557Z" transform="translate(-276.74 -273.01)"/><path className="cls-20" d="M346.67,553.53l.2.51-14.05,5.49-.2-.5a7,7,0,0,1-.49-2.2l13.37-5.23A7,7,0,0,1,346.67,553.53Z" transform="translate(-276.74 -273.01)"/><polygon className="cls-20" points="58.14 291.71 57.11 289.13 71.17 283.64 72.19 286.22 58.14 291.71"/><polygon className="cls-20" points="60.2 296.9 59.18 294.33 73.23 288.83 74.25 291.4 60.2 296.9"/><path className="cls-20" d="M352,567l.33.83a6.67,6.67,0,0,1,.44,1.84L339.24,575a6.52,6.52,0,0,1-.57-.87,6.19,6.19,0,0,1-.36-.78l-.33-.83Z" transform="translate(-276.74 -273.01)"/><path className="cls-20" d="M352.38,572.9a6.88,6.88,0,0,1-3.93,4l-1.1.43a6.92,6.92,0,0,1-5.61-.25Z" transform="translate(-276.74 -273.01)"/><path className="cls-14" d="M351.59,565.93l.76,1.94a6.35,6.35,0,0,1,.45,1.84,6.77,6.77,0,0,1-.42,3.19,6.88,6.88,0,0,1-3.93,4l-1.1.43a7,7,0,0,1-8.11-2.3,6.52,6.52,0,0,1-.57-.87,9.94,9.94,0,0,0,.84.76,9.44,9.44,0,0,0,1.71,1.11,7.88,7.88,0,0,0,1.69.59,7.5,7.5,0,0,0,3.85-.1,7.26,7.26,0,0,0,4-3,5.54,5.54,0,0,0,.3-.53,7.94,7.94,0,0,0,.83-2.93,13.9,13.9,0,0,0-.08-3C351.73,566.73,351.66,566.33,351.59,565.93Z" transform="translate(-276.74 -273.01)"/><path className="cls-16" d="M373,562.43l-5.3,14.43a6.45,6.45,0,0,1-.89,1.66,6.72,6.72,0,0,1-2.44,2.09,6.89,6.89,0,0,1-5.6.34l-1.11-.41a6.93,6.93,0,0,1-4-3.91,6.75,6.75,0,0,1-.51-3.18,6,6,0,0,1,.15-1,8.46,8.46,0,0,1,.24-.82l5.3-14.43a6.66,6.66,0,0,1,1.1-1.95,7,7,0,0,1,7.83-2.15l1.11.42a7,7,0,0,1,4.57,6.73A6.85,6.85,0,0,1,373,562.43Z" transform="translate(-276.74 -273.01)"/><path className="cls-19" d="M371.66,566l-.22.59A9.56,9.56,0,0,1,370,564.9a12.25,12.25,0,0,1-1-1.83,12.86,12.86,0,0,1-.67-1.79c-.25-.83-.44-1.67-.62-2.49l-.15-.65,0-.1a13,13,0,0,1-.25-1.86,16.81,16.81,0,0,1-1.42,1.24,22,22,0,0,1-2.77,1.92,22.77,22.77,0,0,1-3.52,1.69,21.6,21.6,0,0,1-2.48.78l.25-.66c.46-.12.93-.27,1.38-.43a21.76,21.76,0,0,0,3.65-1.64,22,22,0,0,0,2.85-1.89,21.62,21.62,0,0,0,2.08-1.85.28.28,0,0,1,.31-.07.26.26,0,0,1,.19.24l.06.6a12,12,0,0,0,.25,1.9l.06.27.09.39c.23,1,.44,1.94.75,2.86a13,13,0,0,0,.5,1.31,11.24,11.24,0,0,0,1.52,2.44A7.35,7.35,0,0,0,371.66,566Z" transform="translate(-276.74 -273.01)"/><path className="cls-20" d="M373,562.43l-.19.51-14.2-5.26.19-.51a6.66,6.66,0,0,1,1.1-1.95l13.51,5A6.85,6.85,0,0,1,373,562.43Z" transform="translate(-276.74 -273.01)"/><polygon className="cls-20" points="79.92 289.9 80.86 287.31 95.06 292.56 94.11 295.16 79.92 289.9"/><polygon className="cls-20" points="78 295.12 78.95 292.54 93.15 297.79 92.2 300.38 78 295.12"/><path className="cls-20" d="M368,576l-.31.84a6.45,6.45,0,0,1-.89,1.66l-13.7-5.07a6,6,0,0,1,.15-1,6.35,6.35,0,0,1,.24-.82l.31-.84Z" transform="translate(-276.74 -273.01)"/><path className="cls-20" d="M364.34,580.61a6.89,6.89,0,0,1-5.6.34l-1.11-.41a6.93,6.93,0,0,1-4-3.91Z" transform="translate(-276.74 -273.01)"/><path className="cls-14" d="M368.39,574.91l-.72,2a6.45,6.45,0,0,1-.89,1.66,6.72,6.72,0,0,1-2.44,2.09,6.89,6.89,0,0,1-5.6.34l-1.11-.41a6.93,6.93,0,0,1-4-3.91,6.75,6.75,0,0,1-.51-3.18,6,6,0,0,1,.15-1,10.55,10.55,0,0,0,.12,1.13,9.51,9.51,0,0,0,.55,2,8,8,0,0,0,.87,1.56,7.65,7.65,0,0,0,3,2.48,7.23,7.23,0,0,0,4.95.44,5.62,5.62,0,0,0,.58-.19,7.64,7.64,0,0,0,2.58-1.63,13.31,13.31,0,0,0,1.9-2.24C368,575.6,368.18,575.26,368.39,574.91Z" transform="translate(-276.74 -273.01)"/><path className="cls-10" d="M328.9,626.65c3.68,3.42,4.54,8.87,4.64,13.86a30.41,30.41,0,0,1-.77,8.25,17.86,17.86,0,0,1-3,6.84,17.82,17.82,0,0,1,5.42,12.13,12.72,12.72,0,0,1-3.54,8.87,3.64,3.64,0,0,0-.62-.62,4.71,4.71,0,0,0-1.93-.84,3,3,0,0,0-2.68.39,2.69,2.69,0,0,0-.33,3,6,6,0,0,0,.47.9,17.59,17.59,0,0,1-6.63.11c-7-1-13.41-4.46-19.38-8.47a12.15,12.15,0,0,0,1.33-5.08,3.43,3.43,0,0,0-.43-1.48,1.62,1.62,0,0,0-1.27-.8,2.12,2.12,0,0,0-1.65,1.11,18.16,18.16,0,0,0-1.77,3.6l-1.49-1.08c-5.24-3.82-10.44-7.8-14.62-12.75l0,0c3.24-3.76,6.19-7.8,9.27-11.72.94,1,2.05,1.88,2.73,2.57a18.07,18.07,0,0,0,3.22,2.78c.84.53,2.09.85,2.71.09s.15-1.73-.31-2.49a29.9,29.9,0,0,0-5.46-6.52c.85-1,1.72-2,2.61-3,4.54-4.91,10-9.28,16.22-11.5a10.21,10.21,0,0,0,0,1.53,4,4,0,0,0,.66,2.26,2.08,2.08,0,0,0,2.09.85,2.54,2.54,0,0,0,1.12-.77,5.77,5.77,0,0,0,1.32-5.14C321.12,623,325.73,623.72,328.9,626.65Z" transform="translate(-276.74 -273.01)"/><path className="cls-4" d="M330,655.3a.15.15,0,0,1-.09.06,164.89,164.89,0,0,1-49.34-.64.15.15,0,0,1-.12-.17.15.15,0,0,1,.16-.12,164.3,164.3,0,0,0,49.25.64.16.16,0,0,1,.17.13A.19.19,0,0,1,330,655.3Z" transform="translate(-276.74 -273.01)"/><path className="cls-4" d="M319.34,670.26a2.16,2.16,0,0,1-1.4.82,3.41,3.41,0,0,1-2.06-.42,8.17,8.17,0,0,1-2.82-2.6c-.71-1-3.1-5.43-2.07-7.26a1.81,1.81,0,0,1,1.91-.77c1.61.13,3.35,2.3,4.09,3.22a13.76,13.76,0,0,1,2.51,4.9,2.87,2.87,0,0,1,.09,1.64A1.63,1.63,0,0,1,319.34,670.26Zm-8-9.44a.57.57,0,0,0-.08.13c-.91,1.61,1.24,5.82,2.05,6.94h0A7.89,7.89,0,0,0,316,670.4a3.16,3.16,0,0,0,1.89.39,1.72,1.72,0,0,0,1.41-1.09,2.57,2.57,0,0,0-.09-1.47,13.37,13.37,0,0,0-2.46-4.8c-.72-.89-2.4-3-3.88-3.11A1.66,1.66,0,0,0,311.32,660.82Zm1.93,7.21h0Z" transform="translate(-276.74 -273.01)"/><path className="cls-4" d="M326.78,647.38a8,8,0,0,1-5,3.12,4.94,4.94,0,0,1-2.32-.08,5.06,5.06,0,0,1-2.52-1.91h0a8.19,8.19,0,0,1-1.23-7.08c.61-2.22,2-3.68,4.57-4.74a5.9,5.9,0,0,1,4.85-.06,5.77,5.77,0,0,1,2.67,3.09,8,8,0,0,1-.44,6.84A8.15,8.15,0,0,1,326.78,647.38Zm-9.66,1a4.24,4.24,0,0,0,4.55,1.88,7.65,7.65,0,0,0,5.81-10.39,5.48,5.48,0,0,0-2.53-2.94,5.62,5.62,0,0,0-4.61.07c-2.49,1-3.81,2.39-4.4,4.54a8,8,0,0,0,1.18,6.84Z" transform="translate(-276.74 -273.01)"/><path className="cls-10" d="M360.18,639.58h0a39.79,39.79,0,0,1-15,11.21,74.59,74.59,0,0,1-18.19,5,.15.15,0,0,1-.17-.12.14.14,0,0,1,.12-.16,74.79,74.79,0,0,0,18.12-5A39.51,39.51,0,0,0,360,639.4a.15.15,0,0,1,.21,0A.14.14,0,0,1,360.18,639.58Z" transform="translate(-276.74 -273.01)"/><path className="cls-15" d="M373.65,617.15a1.46,1.46,0,1,1-1.82-1A1.46,1.46,0,0,1,373.65,617.15Z" transform="translate(-276.74 -273.01)"/><path className="cls-15" d="M372.34,624.65a1,1,0,0,1-.65,1.2,1,1,0,0,1-1.2-.66,1,1,0,0,1,.65-1.2A1,1,0,0,1,372.34,624.65Z" transform="translate(-276.74 -273.01)"/><path className="cls-15" d="M376.28,621.45a1,1,0,1,1-1.2-.65A1,1,0,0,1,376.28,621.45Z" transform="translate(-276.74 -273.01)"/><path className="cls-15" d="M294,629.33a1.4,1.4,0,1,1,1.91-.09A1.35,1.35,0,0,1,294,629.33Z" transform="translate(-276.74 -273.01)"/><path className="cls-15" d="M291.86,622.77a.88.88,0,0,1,0-1.26.86.86,0,1,1,1.24,1.2A.9.9,0,0,1,291.86,622.77Z" transform="translate(-276.74 -273.01)"/><path className="cls-15" d="M290,627.2a.92.92,0,0,1,1.28-1.32.89.89,0,0,1,0,1.26A.91.91,0,0,1,290,627.2Z" transform="translate(-276.74 -273.01)"/><path className="cls-13" d="M354.57,648.06a13.06,13.06,0,0,0-7.19,8.08,19,19,0,0,0,0,11,25.35,25.35,0,0,0,4.2-3.39,11.25,11.25,0,0,0,2.11-2.56A13.15,13.15,0,0,0,355,655C355,652.67,354.72,650.39,354.57,648.06Z" transform="translate(-276.74 -273.01)"/><path className="cls-13" d="M373.44,656.77a13.24,13.24,0,0,0-7.07-8.26A19.14,19.14,0,0,0,355.44,647a26.24,26.24,0,0,0,2.82,4.64,11.39,11.39,0,0,0,2.25,2.45,13.19,13.19,0,0,0,6,2.12C368.8,656.56,371.11,656.6,373.44,656.77Z" transform="translate(-276.74 -273.01)"/></svg>